<svg width="175" height="101" viewBox="0 0 175 101" fill="none" xmlns="http://www.w3.org/2000/svg">
<path d="M94.3203 36L115 69.165L135.68 36H94.3203Z" stroke="#A276FF" stroke-width="3"/>
<path d="M10.71 69.63C8.218 69.63 6.328 69.196 5.04 68.328C3.78 67.432 2.926 66.186 2.478 64.59C2.03 62.994 1.806 61.146 1.806 59.046H8.568C8.568 60.334 8.638 61.384 8.778 62.196C8.918 63.008 9.17 63.596 9.534 63.96C9.926 64.296 10.472 64.45 11.172 64.422C11.9 64.394 12.418 64.1 12.726 63.54C13.034 62.98 13.216 62.182 13.272 61.146C13.356 60.082 13.398 58.808 13.398 57.324C13.398 56.204 13.328 55.21 13.188 54.342C13.076 53.474 12.824 52.788 12.432 52.284C12.068 51.752 11.508 51.486 10.752 51.486C10.052 51.486 9.478 51.738 9.03 52.242C8.582 52.746 8.26 53.53 8.064 54.594H2.016L2.646 34.98H18.522V40.86H8.274L7.896 47.874C8.176 47.482 8.708 47.146 9.492 46.866C10.276 46.558 11.116 46.362 12.012 46.278C13.748 46.082 15.204 46.404 16.38 47.244C17.584 48.056 18.48 49.302 19.068 50.982C19.684 52.662 19.992 54.72 19.992 57.156C19.992 58.976 19.88 60.656 19.656 62.196C19.432 63.708 18.998 65.024 18.354 66.144C17.71 67.236 16.772 68.09 15.54 68.706C14.308 69.322 12.698 69.63 10.71 69.63ZM35.5651 69.42C34.6691 69.42 33.7731 69.224 32.8771 68.832C32.0091 68.412 31.1691 67.852 30.3571 67.152V69H23.5111V34.98H30.3571V46.488C31.1971 45.76 32.0651 45.214 32.9611 44.85C33.8851 44.486 34.7811 44.304 35.6491 44.304C36.5731 44.304 37.3571 44.486 38.0011 44.85C38.6731 45.214 39.2191 45.732 39.6391 46.404C40.0591 47.048 40.3671 47.804 40.5631 48.672C40.7591 49.54 40.8571 50.464 40.8571 51.444V61.902C40.8571 63.414 40.6471 64.73 40.2271 65.85C39.8351 66.97 39.2471 67.852 38.4631 68.496C37.6791 69.112 36.7131 69.42 35.5651 69.42ZM32.2471 65.01C32.6951 65.01 33.0451 64.884 33.2971 64.632C33.5491 64.38 33.7311 64.058 33.8431 63.666C33.9551 63.246 34.0111 62.784 34.0111 62.28V50.94C34.0111 50.464 33.9551 50.044 33.8431 49.68C33.7311 49.288 33.5491 48.98 33.2971 48.756C33.0731 48.532 32.7511 48.42 32.3311 48.42C31.9671 48.42 31.6171 48.504 31.2811 48.672C30.9731 48.812 30.6651 48.994 30.3571 49.218V64.338C30.6651 64.534 30.9731 64.702 31.2811 64.842C31.6171 64.954 31.9391 65.01 32.2471 65.01ZM44.7992 69V44.724H51.6452V69H44.7992ZM44.7572 40.608V35.862H51.6452V40.608H44.7572ZM63.4745 69.252C61.6545 69.252 60.2545 68.986 59.2745 68.454C58.2945 67.922 57.6085 67.152 57.2165 66.144C56.8525 65.108 56.6705 63.862 56.6705 62.406V49.218H54.3185V44.724H56.6705V37.332H63.6005V44.724H67.0445V49.218H63.6005V61.734C63.6005 62.434 63.7965 62.938 64.1885 63.246C64.6085 63.554 65.1265 63.708 65.7425 63.708C66.1065 63.708 66.4425 63.694 66.7505 63.666C67.0585 63.61 67.3385 63.568 67.5905 63.54V68.916C67.2265 68.972 66.6525 69.042 65.8685 69.126C65.0845 69.21 64.2865 69.252 63.4745 69.252Z" fill="white"/>
</svg>
