<svg width="114" height="74" viewBox="0 0 64 24" fill="none" xmlns="http://www.w3.org/2000/svg">
<g clip-path="url(#clip0_242_719)">
<path d="M51.3226 0.208832H14.4496L12.8691 7.54026H49.8186L51.3226 0.208832Z" fill="#F3F3F3"/>
<path d="M15.9845 6.03349C15.9379 6.24677 15.8135 6.35223 15.6092 6.35114C15.4055 6.35114 15.3263 6.24351 15.3732 6.03137L16.2208 2.11745C16.2444 2.00674 16.2893 1.92163 16.3517 1.86123C16.4166 1.80184 16.4947 1.77118 16.5868 1.77118L17.9779 1.77754C18.5986 1.77935 19.0295 1.86546 19.2708 2.04162C19.5122 2.21567 19.591 2.49548 19.5083 2.87856C19.4236 3.27192 19.2367 3.5693 18.95 3.77158C18.6634 3.97565 18.2906 4.07488 17.8285 4.07417L16.4091 4.06992L15.9845 6.03349ZM17.6055 3.49104C18.0956 3.49203 18.4197 3.45312 18.5768 3.37599C18.7338 3.30671 18.836 3.15585 18.8869 2.92575C18.9202 2.76673 18.9148 2.64987 18.8683 2.57162C18.8227 2.49226 18.7231 2.4372 18.5682 2.40644C18.4154 2.37579 18.1751 2.36036 17.851 2.35925L16.7805 2.35502L16.5359 3.48679L17.6055 3.49104Z" fill="#0F172A"/>
<path d="M15.9845 6.03349C15.9379 6.24677 15.8135 6.35223 15.6092 6.35114C15.4055 6.35114 15.3263 6.24351 15.3732 6.03137L16.2208 2.11745C16.2444 2.00674 16.2893 1.92163 16.3517 1.86123C16.4166 1.80184 16.4947 1.77118 16.5868 1.77118L17.9779 1.77754C18.5986 1.77935 19.0295 1.86546 19.2708 2.04162C19.5122 2.21567 19.591 2.49548 19.5083 2.87856C19.4236 3.27192 19.2367 3.5693 18.95 3.77158C18.6634 3.97565 18.2906 4.07488 17.8285 4.07417L16.4091 4.06992L15.9845 6.03349ZM17.6055 3.49104C18.0956 3.49203 18.4197 3.45312 18.5768 3.37599C18.7338 3.30671 18.836 3.15585 18.8869 2.92575C18.9202 2.76673 18.9148 2.64987 18.8683 2.57162C18.8227 2.49226 18.7231 2.4372 18.5682 2.40644C18.4154 2.37579 18.1751 2.36036 17.851 2.35925L16.7805 2.35502L16.5359 3.48679L17.6055 3.49104Z" fill="#0F172A"/>
<path d="M15.6136 6.40498H15.6086C15.4935 6.40498 15.4089 6.37112 15.3583 6.30962C15.3041 6.24345 15.2912 6.14454 15.3186 6.01909L16.1669 2.10585C16.1933 1.98515 16.2436 1.88855 16.3149 1.82139C16.3898 1.75171 16.4773 1.7135 16.5866 1.71783L17.9775 1.72207C18.616 1.72277 19.0502 1.81393 19.3022 1.99655C19.5618 2.1838 19.6489 2.48469 19.5611 2.88954C19.4729 3.294 19.2785 3.60558 18.9817 3.81651C18.6866 4.02444 18.297 4.13304 17.8283 4.1281L16.4533 4.12376L16.0371 6.04338C15.9861 6.27924 15.8392 6.40428 15.6136 6.40498ZM16.5827 1.82563C16.5068 1.82654 16.4432 1.85114 16.3898 1.90116C16.3346 1.95359 16.2959 2.03012 16.2737 2.12944L15.4261 6.04125C15.405 6.13445 15.4107 6.20128 15.4423 6.24241C15.4727 6.27821 15.5283 6.29637 15.609 6.29637C15.7869 6.30283 15.8896 6.21024 15.9298 6.02192L16.3658 4.01435L17.8283 4.01941C18.2776 4.01941 18.6422 3.92331 18.9189 3.72749C19.1922 3.53489 19.3729 3.24368 19.4546 2.86696C19.5328 2.50223 19.4619 2.24631 19.2385 2.08548C19.0078 1.91728 18.5829 1.83249 17.9775 1.83036L16.5866 1.82563H16.5827ZM17.6813 3.54417H17.6049L16.4688 3.53982L16.7366 2.30066L17.8506 2.3049C18.1779 2.3056 18.4227 2.32214 18.5797 2.3528C18.7497 2.38789 18.8602 2.4503 18.9146 2.54327C18.9685 2.63544 18.9763 2.7637 18.939 2.93593C18.8853 3.18317 18.7713 3.34834 18.5987 3.42409C18.4429 3.50343 18.1424 3.54197 17.6813 3.54417ZM16.6039 3.43265L17.6049 3.43557C18.0857 3.43669 18.4026 3.40088 18.5522 3.32727C18.6949 3.26334 18.7859 3.12933 18.8322 2.91384C18.8641 2.76985 18.8591 2.66509 18.8207 2.59904C18.7837 2.53289 18.6949 2.4868 18.5575 2.45928C18.4076 2.42963 18.1703 2.4143 17.8506 2.4143L16.824 2.41038L16.6039 3.43265Z" fill="white"/>
<path d="M23.5007 4.6898C23.426 5.03284 23.2852 5.33196 23.0762 5.58702C22.8682 5.84359 22.6068 6.04088 22.2921 6.17775C21.9791 6.31651 21.6323 6.38508 21.254 6.38362C20.8748 6.38174 20.56 6.31104 20.305 6.17167C20.0527 6.03272 19.8759 5.83369 19.7794 5.57669C19.6822 5.31984 19.6708 5.02077 19.7436 4.67729L20.0096 3.45658C20.0838 3.11325 20.2248 2.81518 20.4338 2.55895C20.6413 2.30173 20.9039 2.1055 21.2175 1.96685C21.5306 1.82971 21.8776 1.76215 22.2559 1.76326C22.6334 1.76326 22.9503 1.83465 23.2042 1.97401C23.457 2.11336 23.6342 2.31342 23.7298 2.56934C23.8277 2.82627 23.8395 3.12686 23.765 3.46881L23.5007 4.6898ZM22.1297 2.34599C21.7162 2.34498 21.3814 2.43997 21.1243 2.63479C20.8658 2.82768 20.6958 3.10931 20.6159 3.47867L20.3599 4.65905C20.2811 5.0285 20.3269 5.31238 20.5008 5.50599C20.6744 5.70069 20.9687 5.79888 21.3803 5.80072C21.7915 5.80214 22.1271 5.70573 22.3864 5.51212C22.6441 5.31875 22.8137 5.0361 22.8941 4.66733L23.1489 3.48705C23.226 3.1318 23.1831 2.84805 23.0195 2.63902C22.8435 2.44531 22.5462 2.3467 22.1297 2.34599Z" fill="#0F172A"/>
<path d="M23.5007 4.6898C23.426 5.03284 23.2852 5.33196 23.0762 5.58702C22.8682 5.84359 22.6068 6.04088 22.2921 6.17775C21.9791 6.31651 21.6323 6.38508 21.254 6.38362C20.8748 6.38174 20.56 6.31104 20.305 6.17167C20.0527 6.03272 19.8759 5.83369 19.7794 5.57669C19.6822 5.31984 19.6708 5.02077 19.7436 4.67729L20.0096 3.45658C20.0838 3.11325 20.2248 2.81518 20.4338 2.55895C20.6413 2.30173 20.9039 2.1055 21.2175 1.96685C21.5306 1.82971 21.8776 1.76215 22.2559 1.76326C22.6334 1.76326 22.9503 1.83465 23.2042 1.97401C23.457 2.11336 23.6342 2.31342 23.7298 2.56934C23.8277 2.82627 23.8395 3.12686 23.765 3.46881L23.5007 4.6898ZM22.1297 2.34599C21.7162 2.34498 21.3814 2.43997 21.1243 2.63479C20.8658 2.82768 20.6958 3.10931 20.6159 3.47867L20.3599 4.65905C20.2811 5.0285 20.3269 5.31238 20.5008 5.50599C20.6744 5.70069 20.9687 5.79888 21.3803 5.80072C21.7915 5.80214 22.1271 5.70573 22.3864 5.51212C22.6441 5.31875 22.8137 5.0361 22.8941 4.66733L23.1489 3.48705C23.226 3.1318 23.1831 2.84805 23.0195 2.63902C22.8435 2.44531 22.5462 2.3467 22.1297 2.34599Z" fill="#0F172A"/>
<path d="M21.2804 6.43765H21.2542C20.868 6.43553 20.5398 6.36289 20.2794 6.21852C20.0152 6.07392 19.8302 5.86437 19.7291 5.59605C19.628 5.32915 19.6153 5.01678 19.6921 4.66595L19.9568 3.44452C20.0317 3.09614 20.1782 2.78587 20.3916 2.52481C20.6035 2.26243 20.8746 2.05875 21.1952 1.91727C21.5149 1.77721 21.8785 1.70532 22.2559 1.70754C22.641 1.70965 22.9691 1.78327 23.2299 1.92555C23.494 2.07085 23.6798 2.28069 23.7808 2.55012C23.8823 2.81562 23.8945 3.128 23.8189 3.47962L23.5532 4.70055C23.4779 5.0497 23.3323 5.35919 23.119 5.62138C22.9057 5.88234 22.6346 6.08774 22.3148 6.229C22.0015 6.36511 21.6543 6.43553 21.2804 6.43765ZM22.2295 1.81684C21.871 1.81795 21.5368 1.88581 21.2392 2.01589C20.9351 2.1499 20.6788 2.34431 20.4756 2.59227C20.2744 2.84032 20.1349 3.13507 20.0628 3.46814L19.7978 4.68814C19.7269 5.01895 19.7373 5.31203 19.8302 5.55681C19.9234 5.80197 20.0908 5.99091 20.332 6.12424C20.577 6.25857 20.8871 6.32795 21.2542 6.32795C21.6246 6.33214 21.9656 6.26248 22.2707 6.12849C22.5747 5.99516 22.8325 5.80197 23.0344 5.55351C23.2366 5.30486 23.3761 5.00999 23.4467 4.67765L23.7116 3.45672C23.7834 3.12619 23.7733 2.83387 23.6794 2.58843C23.5873 2.34431 23.418 2.15414 23.1781 2.02083C22.9325 1.88652 22.6232 1.81795 22.2559 1.81684H22.2295ZM21.4023 5.85479H21.3805C20.9527 5.85409 20.6436 5.7483 20.4601 5.54139C20.2747 5.33349 20.2235 5.03221 20.3078 4.64699L20.563 3.46702C20.6447 3.08616 20.8229 2.79102 21.0907 2.58915C21.3522 2.39362 21.6952 2.29208 22.108 2.29097H22.1299C22.5615 2.29208 22.8745 2.39645 23.0606 2.60366C23.2362 2.82702 23.2829 3.1269 23.2032 3.4988L22.9473 4.67765C22.8641 5.06041 22.6865 5.35528 22.4187 5.55563C22.1574 5.75226 21.8149 5.85267 21.4023 5.85479ZM22.1088 2.39856C21.7192 2.40068 21.3998 2.49395 21.156 2.67666C20.9104 2.8617 20.747 3.13436 20.6695 3.4906L20.4139 4.66989C20.3382 5.01999 20.3805 5.28953 20.5418 5.47003C20.7039 5.65114 20.9872 5.74438 21.3805 5.74618C21.7749 5.7483 22.1061 5.65435 22.3527 5.46852C22.5999 5.28406 22.763 5.00999 22.8407 4.65516L23.0961 3.47559C23.1692 3.13718 23.1294 2.86674 22.9766 2.67334C22.815 2.49395 22.5288 2.40068 22.1299 2.39856H22.1088Z" fill="white"/>
<path d="M25.9253 6.33558C25.4489 6.33459 25.0863 6.29172 24.8347 6.20781C24.5836 6.12344 24.4178 5.98619 24.3374 5.79574C24.2582 5.60703 24.2541 5.34508 24.326 5.01102L24.7289 3.15291C24.8006 2.82338 24.9136 2.56504 25.0688 2.37668C25.2237 2.18589 25.4384 2.04977 25.7105 1.96476C25.9845 1.88077 26.3369 1.83781 26.7686 1.83962L27.9266 1.84386C28.2121 1.84497 28.4096 1.91464 28.5172 2.0541C28.625 2.19305 28.6484 2.40854 28.5849 2.69945C28.5293 2.9584 28.3988 3.08746 28.1958 3.08636C28.098 3.08636 28.031 3.05449 27.9909 2.99026C27.9506 2.92452 27.9438 2.83346 27.9696 2.71861C27.9944 2.60285 27.9912 2.525 27.9625 2.48497C27.9306 2.44605 27.8596 2.42599 27.7485 2.42599L26.6417 2.42246C26.3071 2.42175 26.0591 2.43929 25.8949 2.4761C25.7309 2.5128 25.6098 2.58248 25.5291 2.68685C25.4478 2.79051 25.3843 2.94992 25.337 3.16824L24.9404 5.00003C24.892 5.22222 24.8867 5.38367 24.9264 5.48625C24.9645 5.58878 25.0671 5.65745 25.2348 5.69537C25.4008 5.73277 25.6718 5.75244 26.0519 5.75244L27.026 5.75669C27.1386 5.75669 27.2175 5.73711 27.2659 5.69853C27.3125 5.65915 27.3491 5.58175 27.3738 5.46587C27.3986 5.35013 27.4448 5.26005 27.5126 5.19534C27.5803 5.13101 27.6617 5.09927 27.7593 5.09927C27.9628 5.10426 28.0346 5.23647 27.979 5.49563C27.917 5.78149 27.8009 5.99548 27.6337 6.13414C27.4646 6.27092 27.2371 6.34072 26.9518 6.3386L25.9253 6.33558Z" fill="#0F172A"/>
<path d="M25.9253 6.33558C25.4489 6.33459 25.0863 6.29172 24.8347 6.20781C24.5836 6.12344 24.4178 5.98619 24.3374 5.79574C24.2582 5.60703 24.2541 5.34508 24.326 5.01102L24.7289 3.15291C24.8006 2.82338 24.9136 2.56504 25.0688 2.37668C25.2237 2.18589 25.4384 2.04977 25.7105 1.96476C25.9845 1.88077 26.3369 1.83781 26.7686 1.83962L27.9266 1.84386C28.2121 1.84497 28.4096 1.91464 28.5172 2.0541C28.625 2.19305 28.6484 2.40854 28.5849 2.69945C28.5293 2.9584 28.3988 3.08746 28.1958 3.08636C28.098 3.08636 28.031 3.05449 27.9909 2.99026C27.9506 2.92452 27.9438 2.83346 27.9696 2.71861C27.9944 2.60285 27.9912 2.525 27.9625 2.48497C27.9306 2.44605 27.8596 2.42599 27.7485 2.42599L26.6417 2.42246C26.3071 2.42175 26.0591 2.43929 25.8949 2.4761C25.7309 2.5128 25.6098 2.58248 25.5291 2.68685C25.4478 2.79051 25.3843 2.94992 25.337 3.16824L24.9404 5.00003C24.892 5.22222 24.8867 5.38367 24.9264 5.48625C24.9645 5.58878 25.0671 5.65745 25.2348 5.69537C25.4008 5.73277 25.6718 5.75244 26.0519 5.75244L27.026 5.75669C27.1386 5.75669 27.2175 5.73711 27.2659 5.69853C27.3125 5.65915 27.3491 5.58175 27.3738 5.46587C27.3986 5.35013 27.4448 5.26005 27.5126 5.19534C27.5803 5.13101 27.6617 5.09927 27.7593 5.09927C27.9628 5.10426 28.0346 5.23647 27.979 5.49563C27.917 5.78149 27.8009 5.99548 27.6337 6.13414C27.4646 6.27092 27.2371 6.34072 26.9518 6.3386L25.9253 6.33558Z" fill="#0F172A"/>
<path d="M26.9656 6.3938H26.9516L25.924 6.39059C25.4458 6.38843 25.0735 6.34338 24.8165 6.25868C24.5523 6.17086 24.3734 6.02172 24.2877 5.81741C24.203 5.61724 24.1981 5.34289 24.2726 4.99982L24.6745 3.14054C24.7483 2.80566 24.8663 2.53633 25.0259 2.3405C25.188 2.14468 25.4124 2.00028 25.6949 1.91235C25.9721 1.82634 26.3292 1.78238 26.7695 1.7845L27.9264 1.78914C28.228 1.78914 28.4423 1.86839 28.5611 2.02095C28.6793 2.1718 28.7049 2.40514 28.6389 2.70997C28.5618 3.06763 28.3509 3.14164 28.1953 3.14164C28.0781 3.14164 27.9942 3.09839 27.9441 3.01762C27.8981 2.94078 27.8892 2.83611 27.9157 2.70603C27.9465 2.5692 27.925 2.52806 27.9178 2.51889C27.9117 2.5095 27.8781 2.48097 27.7486 2.47986L26.6418 2.47663C26.313 2.47451 26.0666 2.49337 25.9068 2.52917C25.7579 2.56164 25.6447 2.62637 25.5723 2.71964C25.4963 2.81574 25.4357 2.97153 25.3909 3.17956L24.9936 5.01015C24.9488 5.22097 24.9427 5.37534 24.9768 5.46571C25.0083 5.5497 25.0998 5.60838 25.246 5.64295C25.4084 5.67879 25.6798 5.69841 26.0517 5.69841L27.0272 5.70162C27.1274 5.70337 27.1943 5.68625 27.2301 5.65658C27.2563 5.63479 27.2929 5.5823 27.3198 5.45472C27.3481 5.3286 27.4001 5.22922 27.4747 5.15636C27.5514 5.08236 27.6454 5.04594 27.7552 5.04491H27.7594C27.8651 5.04774 27.9433 5.07953 27.9931 5.14414C28.0559 5.22319 28.0689 5.34218 28.0325 5.50796C27.9673 5.80491 27.8455 6.03007 27.6687 6.17581C27.4937 6.31919 27.2566 6.39196 26.9656 6.3938ZM26.7132 1.8939C26.3134 1.89703 25.9824 1.93666 25.7268 2.01602C25.4654 2.09789 25.2582 2.2312 25.1109 2.41059C24.9613 2.59138 24.8516 2.84428 24.782 3.16413L24.3802 5.02203C24.3092 5.34388 24.3135 5.59687 24.388 5.77515C24.4619 5.94919 24.6179 6.07714 24.8527 6.15501C25.0976 6.23759 25.4583 6.28014 25.9254 6.2816L26.9516 6.28509C27.2252 6.28014 27.441 6.21972 27.5988 6.09139C27.7573 5.9614 27.8667 5.75661 27.9264 5.48325C27.9537 5.35426 27.9482 5.262 27.9067 5.21168C27.8769 5.17376 27.8293 5.15537 27.758 5.15343H27.7552C27.6737 5.15343 27.607 5.18102 27.5514 5.23526C27.4912 5.29176 27.4496 5.37355 27.427 5.47721C27.3994 5.60625 27.3571 5.69195 27.2994 5.73916C27.2431 5.78737 27.1556 5.80986 27.0326 5.80986H27.0272L26.0517 5.80774C25.6717 5.80675 25.392 5.78666 25.2223 5.74846C25.0377 5.70662 24.9194 5.62385 24.8749 5.50575C24.8322 5.39067 24.8366 5.22319 24.8868 4.98836L25.2844 3.15667C25.3336 2.92868 25.3998 2.76351 25.4869 2.65289C25.5744 2.53915 25.7078 2.46131 25.8828 2.42228C26.0495 2.38437 26.3062 2.36692 26.6429 2.36803L27.7486 2.37126C27.8784 2.37126 27.9624 2.39798 28.005 2.45344C28.0469 2.50628 28.052 2.59461 28.0222 2.72963C28.0011 2.83107 28.006 2.90902 28.0379 2.96155C28.0658 3.00834 28.1179 3.03193 28.1956 3.03305H28.1996C28.3735 3.03193 28.4819 2.919 28.5323 2.68778C28.5915 2.41411 28.5718 2.21154 28.4743 2.0864C28.3771 1.96248 28.1921 1.89813 27.9264 1.89703L26.7677 1.8939H26.7132Z" fill="white"/>
<path d="M30.5178 6.35088C30.0417 6.34838 29.6792 6.30693 29.4271 6.22293C29.1765 6.13766 29.0105 6.00069 28.9299 5.81062C28.851 5.62159 28.8459 5.35968 28.9183 5.02732L29.3221 3.16741C29.3928 2.83828 29.5053 2.58025 29.6613 2.39088C29.8162 2.2011 30.0308 2.06497 30.3037 1.97916C30.5769 1.89386 30.9294 1.85382 31.361 1.85382L32.5182 1.85847C32.805 1.86058 33.0014 1.92885 33.1107 2.06921C33.2181 2.20725 33.2408 2.42234 33.177 2.71537C33.1222 2.9727 32.9921 3.10277 32.7885 3.10167C32.6898 3.10167 32.6228 3.0688 32.5836 3.00447C32.5435 2.93861 32.5372 2.84928 32.5615 2.73281C32.5867 2.61816 32.5836 2.53911 32.5547 2.50029C32.5235 2.46126 32.4532 2.4413 32.3405 2.4413L31.2356 2.43696C30.8996 2.43696 30.6508 2.4545 30.488 2.4899C30.3242 2.527 30.2023 2.59739 30.1216 2.70216C30.0414 2.80471 29.9771 2.96554 29.9302 3.18274L29.5326 5.01411C29.4842 5.23635 29.4803 5.39892 29.5192 5.50084C29.5569 5.6031 29.6596 5.67266 29.8273 5.71049C29.9936 5.7477 30.2655 5.76704 30.6447 5.76779L31.6188 5.771C31.7318 5.771 31.8106 5.75162 31.8585 5.7128C31.9049 5.6738 31.9417 5.59626 31.9669 5.48118C31.9912 5.36544 32.0385 5.27535 32.1051 5.20994C32.1736 5.14631 32.2545 5.11344 32.3526 5.11344C32.5547 5.11948 32.6285 5.25177 32.5721 5.51075C32.5108 5.79671 32.3947 6.01008 32.2259 6.14831C32.0584 6.28627 31.8302 6.35522 31.5441 6.35414L30.5178 6.35088Z" fill="#0F172A"/>
<path d="M30.5178 6.35088C30.0417 6.34838 29.6792 6.30693 29.4271 6.22293C29.1765 6.13766 29.0105 6.00069 28.9299 5.81062C28.851 5.62159 28.8459 5.35968 28.9183 5.02732L29.3221 3.16741C29.3928 2.83828 29.5053 2.58025 29.6613 2.39088C29.8162 2.2011 30.0308 2.06497 30.3037 1.97916C30.5769 1.89386 30.9294 1.85382 31.361 1.85382L32.5182 1.85847C32.805 1.86058 33.0014 1.92885 33.1107 2.06921C33.2181 2.20725 33.2408 2.42234 33.177 2.71537C33.1222 2.9727 32.9921 3.10277 32.7885 3.10167C32.6898 3.10167 32.6228 3.0688 32.5836 3.00447C32.5435 2.93861 32.5372 2.84928 32.5615 2.73281C32.5867 2.61816 32.5836 2.53911 32.5547 2.50029C32.5235 2.46126 32.4532 2.4413 32.3405 2.4413L31.2356 2.43696C30.8996 2.43696 30.6508 2.4545 30.488 2.4899C30.3242 2.527 30.2023 2.59739 30.1216 2.70216C30.0414 2.80471 29.9771 2.96554 29.9302 3.18274L29.5326 5.01411C29.4842 5.23635 29.4803 5.39892 29.5192 5.50084C29.5569 5.6031 29.6596 5.67266 29.8273 5.71049C29.9936 5.7477 30.2655 5.76704 30.6447 5.76779L31.6188 5.771C31.7318 5.771 31.8106 5.75162 31.8585 5.7128C31.9049 5.6738 31.9417 5.59626 31.9669 5.48118C31.9912 5.36544 32.0385 5.27535 32.1051 5.20994C32.1736 5.14631 32.2545 5.11344 32.3526 5.11344C32.5547 5.11948 32.6285 5.25177 32.5721 5.51075C32.5108 5.79671 32.3947 6.01008 32.2259 6.14831C32.0584 6.28627 31.8302 6.35522 31.5441 6.35414L30.5178 6.35088Z" fill="#0F172A"/>
<path d="M31.5577 6.40851C31.5534 6.4096 31.5484 6.40851 31.5437 6.40851L30.5177 6.40516C30.0375 6.40304 29.6662 6.35951 29.4105 6.27447C29.1445 6.18514 28.9659 6.03681 28.8809 5.83311C28.7959 5.63309 28.791 5.35788 28.8645 5.01552L29.2681 3.15523C29.3398 2.81895 29.4586 2.55203 29.6188 2.35621C29.7801 2.15968 30.0043 2.0164 30.2875 1.92776C30.5635 1.84205 30.927 1.8002 31.3616 1.8002L32.5185 1.80424C32.8217 1.80525 33.035 1.88309 33.1533 2.03575C33.2719 2.18721 33.2977 2.41984 33.2311 2.72577C33.1546 3.07951 32.9512 3.15523 32.7921 3.15705H32.789C32.6695 3.15594 32.5854 3.11409 32.5366 3.03231C32.4898 2.95548 32.4799 2.85111 32.5092 2.72214C32.539 2.58349 32.5179 2.54275 32.5104 2.53308C32.5039 2.52531 32.4711 2.49557 32.3407 2.49557L31.2355 2.49163C30.9052 2.49163 30.6578 2.50918 30.5001 2.54387C30.3495 2.57633 30.238 2.64208 30.1655 2.73424C30.0895 2.83145 30.0282 2.98724 29.9838 3.19526L29.5858 5.02665C29.5406 5.23667 29.5338 5.39038 29.5694 5.4815C29.6009 5.56583 29.6912 5.62422 29.8386 5.65737C29.9992 5.69379 30.2714 5.71312 30.6445 5.71425L31.6209 5.71774C31.7389 5.71921 31.7971 5.69232 31.822 5.67129C31.8488 5.65063 31.8856 5.59686 31.9132 5.469C31.9397 5.34397 31.9927 5.24384 32.0668 5.17135C32.144 5.09744 32.2432 5.06094 32.3519 5.06094C32.4571 5.06235 32.5356 5.09631 32.5851 5.15885C32.648 5.23893 32.6601 5.35788 32.6253 5.52263C32.5605 5.81849 32.4385 6.04355 32.261 6.19047C32.0864 6.33376 31.8488 6.40738 31.5577 6.40851ZM31.3105 1.90951C30.9073 1.91163 30.575 1.95246 30.3201 2.03182C30.0569 2.11249 29.8511 2.24579 29.7034 2.42478C29.5546 2.60699 29.4434 2.86009 29.3743 3.17772L28.972 5.03802C28.9018 5.35859 28.9057 5.61229 28.9806 5.78986C29.0552 5.96611 29.2072 6.09077 29.4449 6.17123C29.6901 6.25372 30.0508 6.29485 30.5191 6.29697L31.5437 6.30088C31.813 6.29485 32.0337 6.23556 32.1913 6.10609C32.3494 5.97715 32.4603 5.77132 32.5185 5.49904C32.5462 5.37 32.5403 5.27855 32.4995 5.22639C32.4702 5.1896 32.4223 5.17135 32.3507 5.16781C32.2679 5.16559 32.2003 5.19521 32.1418 5.24926C32.0826 5.30746 32.0431 5.38863 32.0191 5.49263C31.9917 5.62186 31.9506 5.70765 31.8924 5.75486C31.836 5.80245 31.7504 5.82457 31.6284 5.82566H31.619L30.6445 5.82231C30.257 5.82132 29.9859 5.80245 29.8138 5.76316C29.6292 5.72241 29.5133 5.64011 29.4671 5.52083C29.4244 5.40792 29.4284 5.23889 29.48 5.00415L29.8758 3.17238C29.9249 2.94691 29.9923 2.77821 30.0781 2.66749C30.1669 2.55415 30.3 2.47701 30.4757 2.43839C30.6445 2.39907 30.892 2.38303 31.2355 2.38303L32.3407 2.38697C32.4711 2.38697 32.5552 2.41338 32.5973 2.46804C32.639 2.52209 32.6449 2.61032 32.6156 2.74433C32.5935 2.84688 32.5982 2.92371 32.6293 2.97625C32.6586 3.02404 32.7106 3.04764 32.7878 3.04764H32.7903C32.9652 3.04764 33.0748 2.93471 33.1247 2.70248C33.1838 2.42992 33.1648 2.22714 33.0677 2.1022C32.9702 1.97818 32.7865 1.91384 32.5185 1.91274L31.3613 1.90951H31.3105Z" fill="white"/>
<path d="M33.3818 6.07546L34.2317 2.15546C34.2806 1.92888 34.4073 1.81635 34.6109 1.81736C34.8148 1.81736 34.8905 1.93856 34.8385 2.17906L34.1461 5.37082L37.4188 1.99896C37.5349 1.88421 37.6532 1.82643 37.7694 1.82643C37.9633 1.82784 38.0358 1.94149 37.9879 2.16837L37.1377 6.08866C37.0894 6.30986 36.9633 6.42169 36.7591 6.4199C36.5545 6.4199 36.4758 6.31411 36.5219 6.10621L37.222 2.87442L33.9848 6.2169C33.9095 6.29453 33.8475 6.34811 33.7986 6.37283C33.7488 6.39702 33.6856 6.41032 33.6072 6.41032C33.4092 6.40961 33.3329 6.29779 33.3818 6.07546Z" fill="#0F172A"/>
<path d="M33.3818 6.07546L34.2317 2.15546C34.2806 1.92888 34.4073 1.81635 34.6109 1.81736C34.8148 1.81736 34.8905 1.93856 34.8385 2.17906L34.1461 5.37082L37.4188 1.99896C37.5349 1.88421 37.6532 1.82643 37.7694 1.82643C37.9633 1.82784 38.0358 1.94149 37.9879 2.16837L37.1377 6.08866C37.0894 6.30986 36.9633 6.42169 36.7591 6.4199C36.5545 6.4199 36.4758 6.31411 36.5219 6.10621L37.222 2.87442L33.9848 6.2169C33.9095 6.29453 33.8475 6.34811 33.7986 6.37283C33.7488 6.39702 33.6856 6.41032 33.6072 6.41032C33.4092 6.40961 33.3329 6.29779 33.3818 6.07546Z" fill="#0F172A"/>
<path d="M36.7632 6.47408H36.7582C36.6433 6.47408 36.5567 6.44224 36.5066 6.37857C36.4543 6.31315 36.4416 6.21779 36.4677 6.09596L37.129 3.04891L34.0235 6.25396C33.9444 6.33678 33.8787 6.3922 33.8223 6.42003C33.7657 6.44927 33.6941 6.46403 33.6078 6.46403C33.4976 6.46403 33.417 6.43337 33.3678 6.37041C33.3108 6.30287 33.2996 6.1992 33.3279 6.0645L34.1779 2.14451C34.2457 1.83081 34.4466 1.76285 34.605 1.76184H34.6106C34.7199 1.76184 34.8002 1.79461 34.8509 1.85723C34.9108 1.93225 34.9241 2.03975 34.8905 2.18919L34.2395 5.19541L37.3789 1.9619C37.5085 1.83616 37.6336 1.77354 37.77 1.77212C37.8743 1.77354 37.9524 1.8044 38.001 1.86359C38.0574 1.93437 38.0698 2.03763 38.0399 2.1788L37.1893 6.09988C37.1377 6.344 36.9898 6.47299 36.7632 6.47408ZM37.3155 2.6984L36.5745 6.11747C36.5548 6.20779 36.5614 6.27254 36.5922 6.31103C36.6218 6.34711 36.6775 6.36612 36.7588 6.36612H36.7632C36.9384 6.36541 37.0409 6.27254 37.0832 6.07672L37.9319 2.15631C37.9562 2.04983 37.9509 1.97399 37.916 1.93225C37.8886 1.89827 37.8388 1.88184 37.769 1.88184H37.7666C37.6663 1.88184 37.5623 1.93437 37.4574 2.03763L34.0521 5.54457L34.784 2.1663C34.8086 2.05306 34.8027 1.97188 34.765 1.92509C34.737 1.88899 34.6847 1.87155 34.6106 1.87074H34.605C34.4297 1.87155 34.3276 1.96694 34.2846 2.1663L33.4347 6.08667C33.4126 6.18812 33.4189 6.26075 33.4515 6.30287C33.4808 6.33678 33.5325 6.35428 33.6081 6.35532C33.6807 6.35428 33.7324 6.34612 33.7728 6.32466C33.8167 6.30103 33.8749 6.25288 33.945 6.17987L37.3155 2.6984Z" fill="white"/>
<path d="M41.0937 6.11425L41.462 4.41476L40.4362 4.4105C40.2123 4.4105 40.0395 4.4456 39.9143 4.51699C39.7889 4.58808 39.6834 4.70968 39.5977 4.88081L39.2774 5.52616C39.1354 5.79773 38.953 6.01601 38.7304 6.17967C38.5078 6.34375 38.2811 6.4245 38.0486 6.4245C37.7942 6.42341 37.6899 6.32658 37.732 6.13179C37.7746 5.94097 37.9206 5.84782 38.1721 5.84924C38.2609 5.84924 38.3512 5.80919 38.4464 5.72802C38.5411 5.64695 38.6108 5.5655 38.6528 5.4815L39.0096 4.77423C39.1233 4.56208 39.2714 4.38298 39.4533 4.24192C39.0084 4.03176 38.8424 3.66624 38.9567 3.14261C39.0435 2.73604 39.2646 2.42446 39.6173 2.20726C39.9691 1.99137 40.4299 1.88377 40.9978 1.8859L42.3371 1.88983C42.5308 1.89195 42.6024 2.00891 42.5513 2.24537L41.7123 6.11656C41.6665 6.32941 41.5432 6.43558 41.3449 6.43492C41.1316 6.43379 41.0476 6.32729 41.0937 6.11425ZM41.8832 2.47195L40.8723 2.46873C40.4735 2.46762 40.1715 2.52166 39.9654 2.63248C39.7596 2.7429 39.6304 2.92037 39.5765 3.1659C39.4816 3.60545 39.8153 3.82598 40.5769 3.8288L41.5884 3.83203L41.8832 2.47195Z" fill="#0F172A"/>
<path d="M41.0937 6.11425L41.462 4.41476L40.4362 4.4105C40.2123 4.4105 40.0395 4.4456 39.9143 4.51699C39.7889 4.58808 39.6834 4.70968 39.5977 4.88081L39.2774 5.52616C39.1354 5.79773 38.953 6.01601 38.7304 6.17967C38.5078 6.34375 38.2811 6.4245 38.0486 6.4245C37.7942 6.42341 37.6899 6.32658 37.732 6.13179C37.7746 5.94097 37.9206 5.84782 38.1721 5.84924C38.2609 5.84924 38.3512 5.80919 38.4464 5.72802C38.5411 5.64695 38.6108 5.5655 38.6528 5.4815L39.0096 4.77423C39.1233 4.56208 39.2714 4.38298 39.4533 4.24192C39.0084 4.03176 38.8424 3.66624 38.9567 3.14261C39.0435 2.73604 39.2646 2.42446 39.6173 2.20726C39.9691 1.99137 40.4299 1.88377 40.9978 1.8859L42.3371 1.88983C42.5308 1.89195 42.6024 2.00891 42.5513 2.24537L41.7123 6.11656C41.6665 6.32941 41.5432 6.43558 41.3449 6.43492C41.1316 6.43379 41.0476 6.32729 41.0937 6.11425ZM41.8832 2.47195L40.8723 2.46873C40.4735 2.46762 40.1715 2.52166 39.9654 2.63248C39.7596 2.7429 39.6304 2.92037 39.5765 3.1659C39.4816 3.60545 39.8153 3.82598 40.5769 3.8288L41.5884 3.83203L41.8832 2.47195Z" fill="#0F172A"/>
<path d="M41.3501 6.48911H41.3448C41.2221 6.48911 41.1331 6.45524 41.0805 6.39091C41.0272 6.32304 41.0142 6.2281 41.041 6.10321L41.3953 4.4692L40.4357 4.46526C40.2272 4.4692 40.0568 4.49812 39.942 4.56418C39.8262 4.62993 39.7278 4.74468 39.6475 4.90438L39.3268 5.54974C39.1808 5.82956 38.9915 6.05473 38.7639 6.22405C38.531 6.39374 38.2904 6.48024 38.0472 6.47817C37.8878 6.47817 37.7804 6.44095 37.72 6.36733C37.6711 6.3055 37.6571 6.22192 37.6789 6.1208C37.7122 5.97106 37.8249 5.79881 38.1717 5.79377H38.1736C38.248 5.79377 38.3268 5.75778 38.4109 5.68619C38.5005 5.61016 38.5653 5.53333 38.6036 5.4565L38.9613 4.75001C39.0643 4.55642 39.1973 4.39054 39.3548 4.2519C38.9429 4.0257 38.7901 3.64982 38.9012 3.13161C38.9946 2.71143 39.2247 2.38593 39.5883 2.16146C39.941 1.94638 40.403 1.83455 40.9622 1.83163H40.998L42.3379 1.83597C42.4407 1.83627 42.5179 1.86632 42.5656 1.92672C42.6247 1.99952 42.6368 2.10712 42.6051 2.25656L41.766 6.12863C41.7144 6.36309 41.5709 6.48812 41.3501 6.48911ZM41.1477 6.12651C41.1281 6.21659 41.1334 6.28234 41.1658 6.32234C41.1969 6.36016 41.2564 6.38054 41.3448 6.38054C41.5176 6.38167 41.6178 6.29328 41.6586 6.10505L42.498 2.23336C42.5216 2.12144 42.5164 2.03956 42.4812 1.99459C42.4541 1.96171 42.4049 1.94497 42.3367 1.94497L40.998 1.94034C40.4466 1.9363 39.9874 2.0439 39.6459 2.25333C39.3078 2.46165 39.0939 2.76356 39.0089 3.1549C38.9006 3.65363 39.054 3.99325 39.4765 4.19149L39.5556 4.22972L39.4874 4.28486C39.3121 4.42201 39.167 4.59645 39.0584 4.80013L38.7013 5.50578C38.6552 5.59473 38.583 5.68406 38.4818 5.76915C38.3772 5.8581 38.2763 5.90531 38.1717 5.90206C37.9501 5.90206 37.8209 5.97992 37.7857 6.14297C37.7704 6.21192 37.777 6.26409 37.8053 6.29767C37.8427 6.34483 37.9267 6.36955 38.0488 6.36955C38.2648 6.36733 38.4859 6.29229 38.6985 6.13613C38.9124 5.9778 39.0917 5.76424 39.2284 5.50088L39.5503 4.85651C39.6387 4.67713 39.7539 4.54634 39.8865 4.4706C40.016 4.39668 40.1963 4.35836 40.4211 4.35626H40.4357L41.5301 4.36048L41.1477 6.12651ZM41.6318 3.88635L40.5768 3.88244C40.0765 3.88142 39.7592 3.78765 39.6073 3.59939C39.5129 3.48403 39.4846 3.33428 39.5236 3.1549C39.5805 2.89464 39.7203 2.70215 39.9392 2.58447C40.154 2.46982 40.4622 2.41235 40.8722 2.41447L41.9507 2.4184L41.6318 3.88635ZM40.8355 2.52276C40.4668 2.52488 40.182 2.57742 39.9915 2.67997C39.7984 2.78423 39.6801 2.94697 39.6306 3.17738C39.5979 3.32603 39.6185 3.44108 39.6917 3.53222C39.8202 3.69195 40.1182 3.77343 40.5774 3.77483L41.5447 3.77775L41.8152 2.52599L40.871 2.52276H40.8355Z" fill="white"/>
<path d="M45.5647 4.65358C45.5286 4.60964 45.518 4.55143 45.5351 4.47631C45.5513 4.39849 45.5874 4.33808 45.6422 4.29594C45.6986 4.25619 45.7639 4.23441 45.8415 4.23441L48.5413 4.24409C48.6243 4.24409 48.6833 4.26528 48.7168 4.30602C48.7522 4.34847 48.7611 4.40845 48.7441 4.48782C48.7267 4.56567 48.6918 4.62615 48.639 4.66689C48.5871 4.70906 48.5196 4.72932 48.4362 4.72932L45.7369 4.72045C45.6584 4.72045 45.6017 4.69867 45.5647 4.65358Z" fill="#0F172A"/>
<path d="M45.5647 4.65358C45.5286 4.60964 45.518 4.55143 45.5351 4.47631C45.5513 4.39849 45.5874 4.33808 45.6422 4.29594C45.6986 4.25619 45.7639 4.23441 45.8415 4.23441L48.5413 4.24409C48.6243 4.24409 48.6833 4.26528 48.7168 4.30602C48.7522 4.34847 48.7611 4.40845 48.7441 4.48782C48.7267 4.56567 48.6918 4.62615 48.639 4.66689C48.5871 4.70906 48.5196 4.72932 48.4362 4.72932L45.7369 4.72045C45.6584 4.72045 45.6017 4.69867 45.5647 4.65358Z" fill="#0F172A"/>
<path d="M48.4408 4.78349H48.4361L45.7355 4.77564C45.6421 4.77453 45.5695 4.74489 45.5232 4.68811C45.4755 4.63123 45.4606 4.55624 45.4799 4.46517C45.5001 4.374 45.5437 4.30211 45.6097 4.25321C45.6747 4.20421 45.7523 4.1814 45.8417 4.18073L48.5408 4.18848C48.6403 4.18848 48.7139 4.21752 48.7591 4.27145C48.8049 4.32712 48.8181 4.40398 48.7973 4.49793C48.778 4.5891 48.7351 4.66049 48.6733 4.70918C48.6115 4.75808 48.5342 4.78281 48.4408 4.78349ZM45.8376 4.28892C45.7735 4.28892 45.7208 4.30534 45.6747 4.34034C45.6309 4.374 45.6019 4.4212 45.587 4.48794C45.5745 4.54472 45.5814 4.58798 45.6063 4.61885V4.61985C45.6327 4.6506 45.6747 4.66633 45.7367 4.66633L48.4361 4.67409C48.5026 4.67409 48.5629 4.65736 48.6054 4.62518C48.6488 4.59009 48.6766 4.54302 48.6898 4.47547C48.704 4.41506 48.6983 4.36898 48.6761 4.34034C48.6526 4.31291 48.6063 4.2982 48.5408 4.2982L45.841 4.28892H45.8392H45.8376Z" fill="white"/>
<path d="M19.2947 8.29826L17.6975 15.7044H48.0198L49.6172 8.29826H19.2947Z" fill="#3C6B9A"/>
<path d="M21.9229 14.4884C21.4475 14.4884 21.0847 14.4444 20.8326 14.3609C20.5809 14.2761 20.4159 14.1393 20.3356 13.9484C20.256 13.7592 20.2518 13.4979 20.3238 13.1641L20.7264 11.3049C20.7977 10.9772 20.9111 10.7189 21.0664 10.5284C21.2206 10.339 21.436 10.2029 21.7081 10.1179C21.9821 10.0328 22.3338 9.9906 22.7669 9.99272L23.9239 9.99598C24.2099 9.9981 24.4079 10.0663 24.5158 10.2068C24.623 10.3462 24.6457 10.5602 24.5833 10.8521C24.527 11.1112 24.3968 11.2406 24.1924 11.2406C24.0963 11.2406 24.0278 11.2076 23.9888 11.1409C23.9501 11.0776 23.9428 10.9866 23.9669 10.8717C23.9924 10.756 23.9896 10.6781 23.959 10.6381C23.9281 10.5988 23.8591 10.5798 23.7464 10.5788L22.6399 10.5756C22.3058 10.5748 22.0565 10.5931 21.8934 10.6288C21.7294 10.6659 21.6088 10.7353 21.5271 10.8389C21.446 10.9433 21.3819 11.1037 21.3356 11.3213L20.938 13.1531C20.8896 13.3754 20.8853 13.5368 20.924 13.6382C20.9627 13.7419 21.0649 13.8106 21.2313 13.8485C21.3987 13.8859 21.6709 13.9045 22.0497 13.9056L23.0242 13.9088C23.1358 13.9095 23.2158 13.8902 23.2637 13.8506C23.3101 13.8123 23.3459 13.7348 23.3714 13.619C23.3968 13.5028 23.443 13.4139 23.5108 13.3485C23.5779 13.2838 23.6601 13.2523 23.7568 13.2523C23.96 13.2574 24.0332 13.3892 23.9769 13.6483C23.9145 13.9356 23.7999 14.1483 23.6317 14.2868C23.4624 14.4253 23.2363 14.4938 22.9494 14.4927L21.9229 14.4884Z" fill="white"/>
<path d="M22.9648 14.5476H22.9483L21.9225 14.5437C21.4435 14.5426 21.0706 14.4965 20.8156 14.4114C20.55 14.3235 20.3711 14.1748 20.2847 13.9701C20.2012 13.7704 20.1958 13.4959 20.2704 13.1537L20.6727 11.2937C20.7465 10.9585 20.8641 10.6901 21.0233 10.4943C21.1849 10.2978 21.409 10.1541 21.6916 10.0662C21.969 9.97935 22.3297 9.93761 22.7664 9.93832L23.9232 9.94228C24.2264 9.94228 24.4405 10.0211 24.5577 10.1738C24.676 10.3256 24.7022 10.5572 24.6358 10.8641C24.5577 11.2179 24.3555 11.2937 24.1971 11.2943H24.1924C24.0761 11.2943 23.9913 11.2526 23.9417 11.1696C23.8948 11.0935 23.8844 10.9892 23.9131 10.8601C23.9424 10.7209 23.9228 10.6812 23.9152 10.6715C23.9095 10.6636 23.8757 10.6337 23.746 10.6337L22.6399 10.6297C22.31 10.6287 22.0634 10.6461 21.9043 10.6812C21.755 10.7144 21.641 10.7791 21.5697 10.8723C21.4936 10.9696 21.4335 11.1233 21.3871 11.3323L20.991 13.1639C20.9454 13.3752 20.9397 13.5276 20.9738 13.6195C21.0053 13.7028 21.096 13.7611 21.2434 13.7957C21.4051 13.8315 21.6758 13.8504 22.049 13.8526L23.0242 13.8554C23.1178 13.8554 23.191 13.8403 23.2276 13.8093C23.2534 13.7879 23.2899 13.7361 23.3176 13.6075C23.3455 13.4816 23.3971 13.3809 23.472 13.309C23.5481 13.2365 23.643 13.1986 23.7524 13.1979H23.7563C23.8625 13.2005 23.9407 13.2332 23.9898 13.2973C24.0532 13.3763 24.0654 13.4959 24.0292 13.6599C23.9642 13.959 23.8432 14.1828 23.6664 14.3278C23.4911 14.4712 23.2548 14.5447 22.9648 14.5476ZM22.7131 10.0454C22.3129 10.0487 21.9806 10.0898 21.7242 10.1698C21.4625 10.252 21.2556 10.3828 21.1083 10.5633C20.9583 10.7441 20.8489 10.9981 20.7784 11.3168L20.3768 13.1762C20.308 13.4959 20.3112 13.7489 20.3862 13.9283C20.4579 14.1023 20.6149 14.2292 20.85 14.3088C21.0953 14.3903 21.4561 14.4322 21.9232 14.4354L22.949 14.4382C23.2243 14.4368 23.4391 14.3736 23.5958 14.2445C23.7535 14.1145 23.8636 13.9093 23.9232 13.6371C23.9511 13.507 23.9447 13.4158 23.9041 13.3637C23.8746 13.3265 23.8259 13.3083 23.755 13.3061C23.6742 13.3073 23.6051 13.3331 23.5474 13.3869C23.4882 13.4445 23.4466 13.5255 23.424 13.631C23.3971 13.759 23.3559 13.8451 23.2968 13.8923C23.2397 13.9405 23.1473 13.9637 23.0242 13.9637L22.049 13.9594C21.6626 13.9594 21.3901 13.9394 21.2201 13.9004C21.0341 13.8582 20.9178 13.7765 20.8726 13.6567C20.8293 13.5459 20.8337 13.3763 20.8841 13.1415L21.2821 11.3097C21.3291 11.0856 21.398 10.9152 21.4837 10.8059C21.5718 10.6922 21.7053 10.6143 21.8808 10.5754C22.0472 10.5383 22.3025 10.52 22.6399 10.5207L23.746 10.5243C23.877 10.525 23.9611 10.5507 24.0016 10.6052C24.0432 10.6594 24.0482 10.7483 24.0203 10.8816C23.9977 10.9842 24.003 11.0621 24.0347 11.1145C24.0637 11.1621 24.116 11.185 24.1924 11.185H24.1959C24.3696 11.185 24.4788 11.072 24.5284 10.8416C24.5892 10.5673 24.5688 10.3652 24.472 10.2405C24.3749 10.1156 24.1898 10.0523 23.9232 10.0509L22.7657 10.0454H22.7131Z" fill="white"/>
<path d="M28.4069 10.01C28.6453 10.011 28.7425 10.1089 28.7009 10.3038C28.6586 10.4974 28.5196 10.595 28.2804 10.5938L27.2474 10.5906L26.4583 14.233C26.4385 14.3255 26.388 14.4013 26.3098 14.4606C26.2317 14.521 26.1392 14.551 26.0323 14.551C25.9244 14.551 25.8487 14.5209 25.8032 14.468C25.7559 14.4113 25.7448 14.3326 25.7666 14.2305L26.5558 10.5878L25.5081 10.5846C25.3966 10.5846 25.3146 10.557 25.2636 10.5035C25.2116 10.4492 25.1958 10.3795 25.2141 10.2926C25.2338 10.2037 25.2805 10.1339 25.355 10.0803C25.4296 10.0276 25.5232 10.0006 25.634 10.0022L28.4069 10.01Z" fill="white"/>
<path d="M26.0372 14.6039H26.0305C25.9085 14.6039 25.8164 14.5699 25.7605 14.5012C25.7027 14.4327 25.6865 14.3376 25.7121 14.2189L26.4875 10.6416L25.5073 10.6384C25.3801 10.6373 25.2857 10.606 25.2245 10.5416C25.1595 10.4748 25.137 10.3876 25.1603 10.2801C25.1829 10.1795 25.2369 10.0971 25.3238 10.0367C25.407 9.97694 25.5105 9.94516 25.6339 9.94629L28.4069 9.95666C28.5549 9.95737 28.6546 9.99128 28.713 10.0628C28.7617 10.1257 28.7765 10.2104 28.7535 10.3147C28.7202 10.4665 28.6127 10.6459 28.2877 10.648H28.2802L27.2914 10.6438L26.5102 14.2429C26.4875 14.3487 26.4314 14.4366 26.3428 14.5045C26.2552 14.5699 26.1538 14.6039 26.0372 14.6039ZM25.6289 10.0556C25.5309 10.0556 25.45 10.0781 25.3866 10.1257C25.322 10.1706 25.284 10.228 25.2675 10.3036C25.2528 10.3722 25.2632 10.4268 25.3026 10.4654C25.3428 10.5087 25.412 10.5301 25.5073 10.5301L26.6231 10.533L25.82 14.2411C25.8013 14.3276 25.8093 14.3898 25.8436 14.432C25.8802 14.4748 25.9423 14.4952 26.032 14.4963C26.1233 14.4984 26.2073 14.4709 26.2765 14.4183C26.3453 14.3662 26.3861 14.3015 26.4037 14.2207L27.2032 10.535L28.2802 10.5395C28.4936 10.535 28.6097 10.4616 28.6467 10.2926C28.662 10.2207 28.656 10.1674 28.6288 10.1313C28.5929 10.0874 28.5177 10.0658 28.4069 10.0649L25.6339 10.0556H25.6296H25.6289Z" fill="white"/>
<path d="M29.1792 14.2414C29.133 14.4545 29.0081 14.5613 28.8052 14.5592C28.6016 14.5592 28.5224 14.4527 28.5679 14.2393L29.4169 10.3265C29.4399 10.2157 29.4839 10.1299 29.5485 10.0703C29.6122 10.011 29.6908 9.97921 29.7837 9.98025L31.1728 9.98525C31.794 9.98841 32.2261 10.0746 32.4671 10.2494C32.709 10.4247 32.7871 10.7035 32.704 11.0876C32.6184 11.4807 32.4322 11.7788 32.1457 11.9809C31.8584 12.1825 31.4867 12.2836 31.0245 12.2819L29.6051 12.2779L29.1792 14.2414ZM30.8004 11.699C31.2915 11.7001 31.6152 11.6623 31.7743 11.5842C31.9291 11.5156 32.0318 11.3649 32.0817 11.1348C32.1153 10.9758 32.1103 10.8582 32.0645 10.7802C32.0187 10.7013 31.9185 10.647 31.7647 10.6156C31.6115 10.5856 31.3709 10.5695 31.0464 10.5684L29.9769 10.5652L29.7317 11.6958L30.8004 11.699Z" fill="white"/>
<path d="M28.81 14.6151H28.8047C28.6896 14.6133 28.6058 14.5815 28.5551 14.5186C28.5013 14.4536 28.488 14.3549 28.5142 14.2281L29.3628 10.3149C29.3899 10.193 29.4389 10.0977 29.5102 10.0294C29.5856 9.96075 29.6828 9.92674 29.7831 9.92575L31.1731 9.93108C31.8123 9.9325 32.2463 10.0229 32.4991 10.2056C32.7574 10.3928 32.8443 10.6929 32.7572 11.0986C32.6693 11.5044 32.4738 11.8157 32.1771 12.0247C31.882 12.2326 31.4882 12.3403 31.0243 12.336L29.6497 12.3328L29.2327 14.2524C29.1822 14.4882 29.0362 14.6133 28.81 14.6151ZM29.7792 10.0347C29.7013 10.0355 29.6387 10.0601 29.5859 10.1105C29.53 10.1613 29.4909 10.2384 29.4694 10.3374L28.6218 14.2503C28.6017 14.3436 28.6072 14.4114 28.6391 14.4503C28.668 14.4861 28.7236 14.5054 28.8054 14.5054H28.81C28.9854 14.5043 29.0854 14.4163 29.1266 14.2302L29.5608 12.2234L31.0243 12.2284C31.4683 12.2284 31.8375 12.1312 32.1137 11.9365C32.3876 11.7431 32.5682 11.4529 32.6507 11.0754C32.7298 10.7111 32.6588 10.4554 32.4346 10.2935C32.2045 10.1262 31.7789 10.0415 31.1728 10.0394L29.7824 10.0347H29.7796H29.7792ZM30.8749 11.7539H30.8002L29.6634 11.75L29.9327 10.5096L31.0462 10.5128C31.3733 10.5135 31.6192 10.5311 31.7749 10.5618C31.944 10.5957 32.0567 10.6593 32.1099 10.7522C32.1653 10.8434 32.1712 10.9727 32.1357 11.1447C32.0812 11.3923 31.967 11.5573 31.7952 11.6331C31.6398 11.7109 31.3359 11.7511 30.8749 11.7539ZM30.8002 11.6445C31.282 11.6466 31.5999 11.6099 31.7494 11.5352C31.8907 11.4723 31.9829 11.3382 32.0289 11.1224C32.0595 10.9799 32.0551 10.8734 32.0165 10.8066C31.9791 10.7423 31.8907 10.6951 31.7537 10.6682C31.6046 10.6387 31.3661 10.6233 31.0462 10.6211L30.0202 10.6179L29.8001 11.6406L30.8002 11.6445Z" fill="white"/>
<path d="M35.6841 10.0347L36.5172 14.2241C36.5219 14.2695 36.5172 14.3284 36.5029 14.396C36.4889 14.4628 36.445 14.52 36.3733 14.5711C36.3008 14.6214 36.2242 14.6461 36.1414 14.6461C35.9908 14.6446 35.9027 14.5711 35.8771 14.4228L35.6499 13.2211L33.6847 13.215L32.9372 14.4124C32.8363 14.5597 32.7174 14.6358 32.5764 14.6347C32.4932 14.6347 32.4269 14.6083 32.3777 14.5578C32.3276 14.5068 32.3102 14.4486 32.3233 14.3839C32.3398 14.3153 32.3588 14.2566 32.3827 14.211L35.03 10.0325L35.6841 10.0347ZM35.1607 10.9069L34.0577 12.6329L35.5287 12.6372L35.1607 10.9069Z" fill="white"/>
<path d="M36.1463 14.6991H36.141C35.9648 14.6991 35.8536 14.607 35.8232 14.4329L35.604 13.2755L33.7148 13.2695L32.9838 14.4418C32.8721 14.6048 32.7366 14.6876 32.5797 14.6876H32.5763C32.4785 14.6876 32.3985 14.6573 32.3387 14.5959C32.2768 14.5311 32.2537 14.454 32.2709 14.3725C32.2864 14.2975 32.3095 14.2343 32.3356 14.1849L34.9991 9.97791L35.7297 9.97913L35.7381 10.023L36.5707 14.2128C36.5769 14.27 36.5707 14.3325 36.5551 14.4083C36.5386 14.4869 36.4879 14.5558 36.4047 14.6141C36.325 14.6717 36.2382 14.6991 36.1463 14.6991ZM33.6544 13.1605L35.6955 13.1668L35.9302 14.4121C35.952 14.5363 36.0171 14.5915 36.142 14.5915H36.1451C36.2157 14.5906 36.2799 14.5701 36.3412 14.5262C36.4016 14.4833 36.4371 14.4369 36.4496 14.3857C36.4623 14.3232 36.467 14.27 36.4639 14.2292L35.6401 10.0887L35.0601 10.0866L32.4297 14.2392C32.4091 14.2772 32.3908 14.3296 32.378 14.3947C32.3667 14.4418 32.3801 14.4811 32.4169 14.5197C32.4564 14.5609 32.5078 14.5806 32.5763 14.5806H32.5788C32.6999 14.5791 32.8017 14.5137 32.8923 14.3826L33.6544 13.1605ZM35.5965 12.6916L33.9589 12.6863L35.1865 10.7655L35.5965 12.6916ZM34.1569 12.5786L35.4611 12.584L35.1348 11.0482L34.1569 12.5786Z" fill="white"/>
<path d="M37.8444 14.2569C37.7958 14.478 37.6701 14.5899 37.4661 14.5888C37.2619 14.5877 37.1837 14.4759 37.2326 14.2547L38.0828 10.3335C38.1308 10.1074 38.2529 9.99553 38.4474 9.99553C38.6607 9.99553 38.7426 10.1092 38.6937 10.3357L38.3702 11.8269L40.9026 11.8356L41.227 10.345C41.2756 10.1174 41.4016 10.0049 41.6065 10.0049C41.8107 10.0066 41.8876 10.1185 41.8381 10.345L40.9888 14.2657C40.9408 14.488 40.8144 14.5987 40.6093 14.5977C40.4069 14.5977 40.3294 14.4873 40.377 14.2639L40.7774 12.419L38.2438 12.4112L37.8444 14.2569Z" fill="white"/>
<path d="M40.6136 14.6533H40.609C40.4969 14.6523 40.4131 14.6193 40.3624 14.5568C40.307 14.4882 40.2945 14.3861 40.3229 14.2538L40.7092 12.4721L38.2886 12.4654L37.897 14.2673C37.844 14.5117 37.6968 14.6411 37.4695 14.6422H37.4657C37.3518 14.6422 37.2684 14.6101 37.2186 14.5475C37.1635 14.4782 37.1491 14.3756 37.1793 14.2427L38.0286 10.3234C38.0962 10.009 38.2896 9.94142 38.4421 9.94142H38.4452C38.5657 9.94142 38.6529 9.97392 38.7046 10.0397C38.7618 10.109 38.7762 10.2127 38.7453 10.347L38.4374 11.7735L40.8583 11.781L41.1712 10.3324C41.24 10.0192 41.4411 9.9525 41.6002 9.9517H41.6058C41.7166 9.9517 41.8001 9.98326 41.8508 10.0454C41.9066 10.1155 41.9203 10.2212 41.8904 10.3574L41.0414 14.2774C40.9872 14.5222 40.8406 14.6511 40.6136 14.6533ZM38.1992 12.3556L40.8434 12.3649L40.4293 14.2752C40.4081 14.3756 40.4131 14.4486 40.4474 14.4882C40.4763 14.5264 40.5305 14.5436 40.6099 14.5446H40.6136C40.7898 14.5426 40.8917 14.4507 40.9343 14.2549L41.783 10.3338C41.8054 10.2312 41.8001 10.1575 41.7662 10.1133C41.7363 10.0782 41.6821 10.06 41.6049 10.0593H41.6002C41.4247 10.06 41.3225 10.1554 41.2786 10.3563L40.9471 11.8897L38.302 11.8814L38.6404 10.3234C38.6613 10.2234 38.655 10.15 38.6205 10.1072C38.5897 10.0698 38.5305 10.0501 38.4461 10.0501H38.4424C38.2758 10.0508 38.1781 10.144 38.1339 10.3449L37.2852 14.2659C37.264 14.3653 37.2693 14.4371 37.3042 14.4782C37.3319 14.514 37.3876 14.5336 37.4657 14.5336H37.4695C37.6457 14.5321 37.7478 14.441 37.7905 14.2452L38.1992 12.3556Z" fill="white"/>
<path d="M45.0149 10.0641L45.848 14.2547C45.8524 14.2997 45.8474 14.3584 45.8324 14.4276C45.8184 14.4924 45.7752 14.5495 45.7036 14.6006C45.6326 14.651 45.5547 14.6767 45.4729 14.6767C45.3216 14.6753 45.2335 14.6016 45.207 14.4533L44.98 13.252L43.0152 13.2445L42.2671 14.444C42.1675 14.5916 42.0464 14.6652 41.9066 14.6652C41.8232 14.6652 41.7575 14.6388 41.7077 14.5873C41.6581 14.5373 41.6407 14.4788 41.6544 14.4144C41.6694 14.3447 41.6893 14.2872 41.7135 14.2404L44.3605 10.062L45.0149 10.0641ZM44.491 10.9374L43.3876 12.6638L44.8586 12.6666L44.491 10.9374Z" fill="white"/>
<path d="M45.4747 14.7312H45.4728C45.2948 14.7312 45.1842 14.6379 45.1534 14.4628L44.9349 13.3054L43.0457 13.2989L42.3131 14.4733C42.2014 14.6379 42.066 14.7201 41.9056 14.7201C41.8079 14.7191 41.7291 14.6872 41.669 14.6255C41.6074 14.5622 41.5834 14.4843 41.6002 14.4025C41.6167 14.3299 41.6382 14.2674 41.6652 14.216L44.3312 10.008L45.0597 10.0101L45.0684 10.054L45.9006 14.2434C45.9078 14.3009 45.9012 14.3636 45.8844 14.4393C45.8682 14.5182 45.8181 14.5869 45.7349 14.6451C45.6552 14.7016 45.5687 14.7312 45.4747 14.7312ZM42.9844 13.1917L45.0261 13.1979L45.2611 14.4431C45.2829 14.5672 45.3477 14.6225 45.4728 14.6225H45.4747C45.5457 14.6225 45.6101 14.6011 45.6717 14.5571C45.7322 14.515 45.7676 14.4681 45.7782 14.4167C45.7926 14.3521 45.7966 14.2999 45.7938 14.2602L44.9697 10.1198L44.39 10.1165L41.7599 14.2703C41.7403 14.3081 41.7207 14.3629 41.7079 14.4261C41.6973 14.4733 41.7092 14.5121 41.7465 14.5511C41.7864 14.5897 41.8383 14.6101 41.9063 14.6115H41.9096C42.0308 14.6101 42.1325 14.5451 42.2222 14.4136L42.9844 13.1917ZM44.9261 12.7225L43.2904 12.7172L44.517 10.7965L44.9261 12.7225ZM43.4884 12.6096L44.7916 12.614L44.4654 11.0795L43.4884 12.6096Z" fill="white"/>
<path d="M1.6816 16.3046L0.0998535 23.6358H61.4637L63.0446 16.3032L1.6816 16.3046Z" fill="#CE4D5D"/>
<path d="M3.4779 18.0298C3.50228 17.9182 3.5457 17.8317 3.61055 17.7724C3.67478 17.7131 3.75146 17.6824 3.84293 17.6833L5.21293 17.6888C5.64382 17.6888 5.98227 17.7294 6.22357 17.8095C6.46665 17.8883 6.63017 18.0122 6.71487 18.1812C6.79982 18.3513 6.81269 18.5742 6.75195 18.8524C6.68318 19.1707 6.54235 19.4187 6.32936 19.5927C6.662 19.8017 6.76888 20.1858 6.64847 20.739L6.61932 20.872C6.54697 21.2053 6.43005 21.4662 6.26809 21.6548C6.10528 21.8453 5.88045 21.9805 5.59364 22.0623C5.30613 22.1447 4.92712 22.1856 4.45607 22.1845L2.86986 22.1791C2.77769 22.1791 2.71243 22.1484 2.67439 22.087C2.63685 22.0268 2.62957 21.9415 2.65334 21.831L3.4779 18.0298ZM3.6586 20.0158L3.31654 21.5974L4.58262 21.6002C4.95688 21.6024 5.23336 21.5848 5.41296 21.5483C5.59435 21.5123 5.72631 21.4448 5.81046 21.3454C5.89582 21.2451 5.9611 21.0875 6.00803 20.869L6.03354 20.7593C6.07976 20.5411 6.08486 20.3823 6.04892 20.2845C6.01199 20.1837 5.91841 20.1161 5.77221 20.0773C5.62519 20.0394 5.38673 20.0207 5.05691 20.0197L3.6586 20.0158ZM4.83354 19.4362C5.15832 19.4362 5.40607 19.4226 5.5793 19.3901C5.75108 19.3582 5.87823 19.3029 5.9611 19.2238C6.04326 19.146 6.10202 19.0285 6.13612 18.8705C6.1697 18.7129 6.16296 18.5971 6.11386 18.5203C6.06509 18.4431 5.9611 18.3881 5.80371 18.3551C5.64524 18.3223 5.40352 18.3062 5.07809 18.3052L4.03041 18.3023L3.78487 19.4322L4.83354 19.4362Z" fill="white"/>
<path d="M4.52532 22.2384H4.45683L2.86963 22.233C2.75804 22.233 2.67639 22.1933 2.62863 22.1166C2.58341 22.0448 2.5738 21.9446 2.60031 21.8193L3.42539 18.0171C3.45148 17.8967 3.50055 17.7999 3.57278 17.7339C3.64653 17.6637 3.7366 17.6291 3.84089 17.6291H3.84454L5.213 17.633C5.64898 17.634 5.99465 17.6759 6.24132 17.7559C6.49733 17.8406 6.67334 17.9749 6.76399 18.1576C6.85436 18.3371 6.86771 18.5742 6.80526 18.8633C6.73961 19.1653 6.61019 19.4093 6.41757 19.5877C6.72352 19.8171 6.81993 20.2068 6.70159 20.7523L6.67334 20.8834C6.60019 21.2232 6.47756 21.4948 6.30985 21.6907C6.14015 21.8872 5.90537 22.0293 5.60809 22.1144C5.33058 22.1944 4.96708 22.2351 4.52532 22.2384ZM3.84201 17.7363C3.7638 17.7374 3.70027 17.7624 3.64724 17.812C3.59201 17.8647 3.55294 17.9404 3.5318 18.04L2.70684 21.8422C2.68641 21.9382 2.69066 22.0122 2.72091 22.0593C2.74843 22.1023 2.79719 22.1251 2.86963 22.1251L4.45754 22.1309C4.92152 22.132 5.2969 22.0901 5.57838 22.0111C5.85405 21.9314 6.07167 21.8 6.22693 21.6199C6.38257 21.4388 6.49619 21.1836 6.56642 20.8609L6.59444 20.7283C6.7114 20.1938 6.61486 19.8385 6.30141 19.6387L6.23585 19.5998L6.29438 19.5515C6.49619 19.3858 6.63207 19.146 6.69876 18.8397C6.75508 18.5763 6.74465 18.363 6.66617 18.2059C6.5901 18.0518 6.43516 17.9353 6.20613 17.8602C5.97201 17.7839 5.63752 17.7437 5.213 17.7416L3.84301 17.7363H3.84201ZM4.67233 21.6556H4.58239L3.24893 21.6513L3.61499 19.9603L5.0567 19.9669C5.39482 19.9669 5.63134 19.9857 5.78585 20.0239C5.95126 20.0672 6.0562 20.1477 6.09926 20.2648C6.14015 20.3748 6.13591 20.541 6.08572 20.7698L6.06238 20.8812C6.01319 21.1067 5.9423 21.2736 5.85259 21.379C5.76086 21.4888 5.61639 21.563 5.42486 21.6002C5.25714 21.6359 5.00317 21.6534 4.67233 21.6556ZM3.38411 21.543L4.5831 21.5462C4.95058 21.5462 5.22729 21.5309 5.40189 21.494C5.57013 21.4613 5.69407 21.3994 5.76944 21.3094C5.84684 21.2175 5.90966 21.0656 5.95484 20.8588L5.97918 20.7479C6.02403 20.541 6.03012 20.3917 5.9971 20.3023C5.96654 20.2209 5.88815 20.1629 5.75864 20.1294C5.61639 20.0933 5.38005 20.0751 5.0567 20.0736L3.70279 20.069L3.38411 21.543ZM4.91535 19.4904H4.8337L3.71857 19.4862L3.98678 18.2466L5.07929 18.2508C5.40628 18.252 5.65318 18.2695 5.81467 18.3027C5.98923 18.3399 6.10209 18.4017 6.1602 18.4906C6.21769 18.5807 6.22726 18.7085 6.18892 18.8816C6.1534 19.0484 6.08818 19.1781 5.99932 19.2639C5.909 19.3475 5.7709 19.4093 5.58838 19.4429C5.42698 19.473 5.20724 19.4894 4.91535 19.4904ZM3.85303 19.3786L4.83399 19.3818C5.15522 19.3818 5.40189 19.3686 5.56946 19.3365C5.73072 19.3068 5.84967 19.2557 5.92357 19.185C5.9971 19.1157 6.05054 19.0049 6.08252 18.8594C6.11397 18.7179 6.10831 18.6132 6.06884 18.5499C6.02686 18.4863 5.93437 18.4381 5.79132 18.4085C5.63865 18.3777 5.39868 18.3603 5.07783 18.3595L4.07501 18.3574L3.85303 19.3786Z" fill="white"/>
<path d="M11.2303 20.5668C11.1572 20.9109 11.0149 21.2078 10.8075 21.4652C10.5986 21.722 10.3372 21.9187 10.0235 22.0562C9.70869 22.1944 9.3634 22.263 8.98444 22.2616C8.60623 22.2588 8.28994 22.1895 8.03691 22.0487C7.78185 21.9108 7.60705 21.7106 7.50943 21.4537C7.41297 21.1979 7.40142 20.8977 7.47613 20.5547L7.73959 19.3336C7.81354 18.9924 7.95508 18.6922 8.16411 18.436C8.37281 18.1798 8.63372 17.9825 8.94718 17.8449C9.26124 17.7077 9.60795 17.6391 9.98592 17.6405C10.3645 17.6409 10.6804 17.7121 10.9352 17.851C11.1877 17.9914 11.3647 18.1905 11.4609 18.4475C11.5584 18.7033 11.5705 19.0035 11.4953 19.3468L11.2303 20.5668ZM9.85924 18.223C9.44664 18.2212 9.11211 18.3184 8.85318 18.5106C8.59552 18.7043 8.42724 18.9874 8.34602 19.3568L8.0902 20.5371C8.01111 20.9067 8.05804 21.1882 8.23118 21.384C8.40469 21.5798 8.69829 21.677 9.1114 21.6781C9.52338 21.6802 9.85782 21.5842 10.1171 21.3901C10.3746 21.1968 10.5438 20.9141 10.6236 20.5442L10.8797 19.3651C10.9571 19.0089 10.9134 18.7261 10.7506 18.5182C10.5742 18.3223 10.2777 18.2241 9.85924 18.223Z" fill="white"/>
<path d="M9.01058 22.3159C9.00237 22.3159 8.99266 22.3152 8.98436 22.3152C8.59761 22.3138 8.26987 22.24 8.00995 22.0968C7.74531 21.951 7.55995 21.7413 7.45846 21.4733C7.3588 21.2067 7.34559 20.894 7.42153 20.5438L7.68612 19.3232C7.76252 18.9737 7.9092 18.6638 8.12215 18.402C8.33401 18.1397 8.60473 17.9357 8.92559 17.7958C9.24508 17.654 9.60221 17.5879 9.98589 17.5858C10.3724 17.5865 10.6993 17.6594 10.96 17.8038C11.225 17.9492 11.4102 18.159 11.5121 18.4276C11.6122 18.694 11.6247 19.0051 11.5486 19.3578L11.2842 20.5778C11.2077 20.928 11.0615 21.2374 10.8491 21.4986C10.6351 21.7606 10.3655 21.966 10.045 22.106C9.73295 22.2434 9.38421 22.3138 9.01058 22.3159ZM9.9608 17.6951C9.60183 17.6962 9.26767 17.7641 8.96931 17.8949C8.66425 18.0293 8.4082 18.2218 8.20563 18.4706C8.00306 18.7186 7.86468 19.0133 7.79304 19.3453L7.5284 20.5663C7.45709 20.8961 7.46737 21.1881 7.56104 21.435C7.65353 21.678 7.82171 21.8692 8.06296 22.0025C8.30722 22.1369 8.61662 22.2044 8.98436 22.2062C9.35445 22.2073 9.6954 22.1397 10.0012 22.0068C10.306 21.8728 10.5623 21.6787 10.7638 21.4317C10.9657 21.1831 11.1052 20.8884 11.1769 20.5549L11.4422 19.3349C11.5135 19.003 11.5031 18.7113 11.4095 18.467C11.317 18.2218 11.1493 18.0311 10.9076 17.8992C10.6632 17.7648 10.3533 17.6962 9.98589 17.6951H9.9608ZM9.13179 21.732H9.10991C8.68298 21.7309 8.37349 21.6255 8.19025 21.4198C8.0049 21.2128 7.95434 20.9104 8.03758 20.5242L8.29317 19.3453C8.37561 18.9634 8.5546 18.6693 8.82169 18.4674C9.08302 18.2712 9.42548 18.1703 9.83666 18.1693H9.85892C10.2912 18.1703 10.6047 18.2737 10.7911 18.4809C10.9657 18.7042 11.0141 19.0051 10.9334 19.376L10.6768 20.5549C10.5946 20.9372 10.4175 21.2313 10.1497 21.434C9.88826 21.6298 9.54589 21.7299 9.13179 21.732ZM9.83779 18.2779C9.44944 18.279 9.12924 18.3723 8.88654 18.5534C8.64058 18.7389 8.4764 19.0133 8.40042 19.3689L8.14512 20.5471C8.06838 20.8982 8.11177 21.1666 8.27232 21.3483C8.434 21.5295 8.71727 21.6227 9.11061 21.6245C9.50925 21.6205 9.83666 21.5326 10.0847 21.3467C10.3293 21.162 10.4942 20.8884 10.571 20.5328L10.8265 19.3524C10.8993 19.0155 10.8592 18.7454 10.7068 18.5517C10.5445 18.3712 10.2584 18.2779 9.85892 18.2779H9.83779Z" fill="white"/>
<path d="M14.4758 19.6057C14.7479 19.6072 14.9756 19.5519 15.16 19.4378C15.3456 19.3264 15.4578 19.1766 15.498 18.9922C15.5425 18.7875 15.4908 18.6227 15.347 18.4948C15.2029 18.3673 14.9968 18.3022 14.7293 18.3022L13.3985 18.2969C13.2816 18.2969 13.1998 18.3156 13.156 18.3518C13.1124 18.389 13.0758 18.4699 13.0488 18.5948L13.0223 18.72C12.9704 18.9569 12.8434 19.0734 12.6398 19.0713C12.4354 19.0713 12.3601 18.9533 12.4114 18.7182C12.4917 18.3476 12.6114 18.0879 12.7696 17.9374C12.9277 17.7877 13.1617 17.714 13.4737 17.7147L14.9061 17.7191C15.1982 17.7201 15.4439 17.7712 15.6453 17.8749C15.8454 17.976 15.9896 18.1207 16.0724 18.3061C16.1562 18.4913 16.1714 18.7035 16.1193 18.944C16.0315 19.3517 15.807 19.6734 15.4449 19.9081C15.6981 20.1725 15.7798 20.5135 15.6887 20.9294C15.6364 21.1742 15.5256 21.3943 15.357 21.5912C15.1879 21.7877 14.9781 21.9403 14.7293 22.05C14.4797 22.1615 14.2137 22.215 13.9331 22.215L12.4992 22.2097C12.1883 22.2097 11.9865 22.1329 11.893 21.9821C11.7994 21.8317 11.7921 21.5718 11.8729 21.2009C11.9237 20.9651 12.0507 20.8475 12.2551 20.8487C12.4584 20.8487 12.5354 20.9672 12.4838 21.2039L12.4558 21.3289C12.4304 21.454 12.4307 21.5347 12.4584 21.5718C12.4867 21.6083 12.5588 21.6269 12.6757 21.628L14.0079 21.6322C14.2693 21.6329 14.5045 21.5604 14.7111 21.4158C14.9169 21.2713 15.043 21.0909 15.0892 20.8783C15.133 20.6753 15.086 20.5103 14.949 20.3823C14.8122 20.2541 14.6118 20.1901 14.3489 20.1886L13.7239 20.1864C13.4719 20.1857 13.3673 20.0896 13.4084 19.8938C13.451 19.6991 13.5978 19.6029 13.8502 19.6036L14.4758 19.6057Z" fill="white"/>
<path d="M13.9501 22.2689H13.9325L12.4991 22.2635C12.1695 22.2628 11.9508 22.1789 11.8469 22.0109C11.7447 21.847 11.7354 21.5786 11.8197 21.1901C11.8903 20.8618 12.1 20.797 12.2553 20.7939C12.3657 20.7953 12.4459 20.8267 12.4966 20.8893C12.5553 20.9621 12.5687 21.0697 12.5382 21.214L12.5109 21.3399C12.4769 21.4956 12.4976 21.5325 12.502 21.5389C12.5073 21.5438 12.5356 21.5726 12.6762 21.5736L14.0084 21.5775H14.0193C14.2642 21.5757 14.4865 21.5067 14.6793 21.3705C14.8758 21.2327 14.9924 21.0676 15.0354 20.8675C15.0767 20.6827 15.0354 20.5369 14.9128 20.4201C14.7852 20.3033 14.5968 20.2429 14.3498 20.2429L13.7241 20.2417C13.5642 20.2399 13.4571 20.2032 13.3965 20.1281C13.3474 20.0677 13.3338 19.9844 13.3556 19.8834C13.3887 19.7307 13.4993 19.5517 13.8426 19.5496H13.8507L14.4761 19.5517C14.7432 19.5517 14.9576 19.4982 15.1325 19.3917C15.3053 19.2862 15.4076 19.1518 15.4444 18.98C15.4846 18.7956 15.4416 18.6502 15.3114 18.5355C15.1773 18.4176 14.982 18.3572 14.7295 18.3565L13.3973 18.3518C13.2653 18.3497 13.2148 18.3746 13.1915 18.3939C13.1681 18.4132 13.1322 18.4669 13.1028 18.6059L13.076 18.7298C13.0053 19.0557 12.8031 19.1254 12.6453 19.1276H12.6396C12.5299 19.1254 12.4482 19.0933 12.3983 19.0323C12.3396 18.9581 12.3255 18.8528 12.357 18.7063C12.4399 18.3275 12.5658 18.0548 12.7325 17.8972C12.901 17.7393 13.1516 17.6657 13.4732 17.6596L14.9077 17.6647C15.2065 17.6657 15.462 17.7201 15.6714 17.8251C15.8819 17.9331 16.0339 18.0866 16.1225 18.2835C16.211 18.4779 16.2271 18.7052 16.1731 18.9553C16.087 19.3559 15.8696 19.6786 15.5273 19.9173C15.7595 20.1885 15.8317 20.532 15.7435 20.9403C15.6875 21.1945 15.5721 21.4249 15.3978 21.6268C15.2247 21.8276 15.0078 21.9873 14.7507 22.1C14.5019 22.2097 14.2326 22.2672 13.9501 22.2689ZM12.2514 20.9026C12.0754 20.9039 11.9717 21.0019 11.9261 21.213C11.8494 21.5664 11.8537 21.8162 11.9394 21.9545C12.0219 22.0867 12.2101 22.1553 12.4991 22.1567L13.934 22.1604C14.2118 22.1636 14.4675 22.1083 14.7077 22.0017C14.9483 21.8941 15.1526 21.7447 15.3158 21.5564C15.4785 21.3681 15.5857 21.1526 15.6363 20.9179C15.7242 20.5166 15.6481 20.1989 15.4058 19.9449L15.3607 19.8977L15.4151 19.8619C15.7631 19.6364 15.9826 19.3242 16.0669 18.9328C16.1163 18.7052 16.1013 18.5016 16.0227 18.3285C15.945 18.1552 15.8087 18.018 15.6212 17.9226C15.429 17.8237 15.1896 17.7743 14.9063 17.7722L13.4728 17.7683H13.4586C13.1709 17.77 12.9519 17.8403 12.8074 17.9759C12.6569 18.1177 12.5418 18.3714 12.4643 18.7291C12.4403 18.8395 12.4459 18.9175 12.4837 18.9647C12.5116 18.9997 12.5651 19.0168 12.6396 19.0168C12.8149 19.0239 12.9229 18.9203 12.9695 18.7083L12.9971 18.5827C13.0261 18.4455 13.0666 18.3565 13.1223 18.3099C13.1767 18.2649 13.2731 18.2464 13.3987 18.2421L14.7295 18.2464C15.0092 18.2475 15.229 18.3172 15.3839 18.4544C15.5427 18.5958 15.6 18.7799 15.5516 19.0021C15.5079 19.2019 15.3868 19.3642 15.1903 19.4839C14.997 19.6013 14.7554 19.6601 14.4761 19.6601L13.8507 19.6579C13.6213 19.6601 13.4986 19.7368 13.4614 19.9048C13.4485 19.9737 13.4527 20.0269 13.4818 20.0607C13.5191 20.1068 13.6022 20.1325 13.7241 20.1325L14.3505 20.1353C14.6245 20.1353 14.8392 20.2053 14.9866 20.3411C15.1383 20.4836 15.1906 20.6674 15.1422 20.8893C15.0938 21.1147 14.9591 21.3074 14.7417 21.4596C14.5305 21.6093 14.2868 21.6851 14.0193 21.6861H14.0084L12.6762 21.6822C12.5385 21.6822 12.4557 21.6575 12.4159 21.6044C12.3757 21.5511 12.3722 21.4639 12.4041 21.3177L12.4303 21.1911C12.455 21.0808 12.449 21.0019 12.4116 20.9568C12.3829 20.9214 12.3298 20.9039 12.2549 20.9026H12.2517H12.2514Z" fill="white"/>
<path d="M19.0311 20.1968C18.949 20.2615 18.864 20.294 18.7765 20.294C18.6851 20.2922 18.6117 20.2604 18.5579 20.1951L17.7776 18.6867L17.0771 21.9196C17.0265 22.1547 16.8981 22.2733 16.6948 22.2723C16.4916 22.2712 16.4126 22.1604 16.4611 21.9381L17.3112 18.0189C17.3596 17.7919 17.4815 17.678 17.6765 17.6798C17.797 17.6798 17.8881 17.7405 17.9497 17.8602L18.9067 19.6623L20.6513 17.8616C20.7682 17.7476 20.8826 17.6906 20.9951 17.6906C21.1938 17.6906 21.2684 17.8041 21.2196 18.0307L20.3694 21.9514C20.3215 22.1725 20.1959 22.2844 19.9916 22.2826C19.7879 22.2826 19.712 22.1636 19.7628 21.9281L20.463 18.6954L19.0311 20.1968Z" fill="white"/>
<path d="M19.9976 22.3369H19.9926C19.8819 22.3369 19.8005 22.305 19.7502 22.2437C19.6919 22.17 19.6778 22.0631 19.7095 21.9167L20.3694 18.874L19.0655 20.2404C18.9744 20.3118 18.8786 20.3476 18.7815 20.3476H18.7772C18.6689 20.3476 18.5799 20.3075 18.5166 20.23L17.7998 18.8461L17.1308 21.9313C17.0594 22.2589 16.8579 22.3331 16.6945 22.3279C16.5812 22.3279 16.5001 22.294 16.4485 22.2311C16.3933 22.1628 16.3789 22.0613 16.408 21.9263L17.258 18.0074C17.3258 17.6936 17.5199 17.6257 17.6711 17.6247H17.6765C17.8191 17.6257 17.9275 17.6968 17.9991 17.8358L18.9195 19.5711L20.6122 17.8255C20.7395 17.6993 20.8671 17.6364 20.9927 17.6353H20.9951C21.1037 17.6364 21.1837 17.6672 21.2332 17.7293C21.2895 17.7981 21.3032 17.9033 21.2736 18.0416L20.4235 21.9621C20.3709 22.2068 20.2231 22.3358 19.9976 22.3369ZM20.5576 18.518L19.8173 21.9406C19.7925 22.05 19.7984 22.13 19.8348 22.1739C19.8645 22.2101 19.917 22.2283 19.9926 22.229C20.1751 22.2311 20.2745 22.1378 20.3175 21.9395L21.1666 18.0191C21.1887 17.9148 21.1833 17.8408 21.1471 17.7973C21.1213 17.7623 21.0687 17.7436 20.9951 17.7436H20.993C20.8973 17.7447 20.7951 17.7973 20.6906 17.9016L18.8937 19.7537L17.902 17.8862C17.8497 17.7827 17.7768 17.7337 17.6755 17.7337C17.5141 17.7315 17.4091 17.8269 17.3653 18.0296L16.5152 21.9488C16.4937 22.0489 16.5001 22.1207 16.5335 22.164C16.5629 22.1997 16.6171 22.2182 16.6955 22.2182C16.8726 22.2182 16.9792 22.1207 17.024 21.9078L17.7572 18.5276L18.6065 20.1693C18.6435 20.2136 18.702 20.2383 18.7772 20.2404H18.7801C18.8532 20.2383 18.9246 20.2115 18.9956 20.1571L20.5576 18.518Z" fill="white"/>
<path d="M25.4094 20.6136C25.335 20.9562 25.1929 21.2553 24.985 21.5113C24.7767 21.7674 24.5153 21.9646 24.2015 22.1021C23.8875 22.2405 23.5408 22.308 23.1632 22.308C22.7836 22.3058 22.4684 22.2362 22.2142 22.0958C21.9596 21.9557 21.785 21.7567 21.6879 21.5008C21.5899 21.2439 21.5792 20.9436 21.6534 20.6007L21.9169 19.3803C21.9922 19.0383 22.1339 18.7383 22.3426 18.4831C22.5505 18.2262 22.8105 18.0296 23.1255 17.891C23.4397 17.7538 23.7853 17.6852 24.1646 17.6867C24.5418 17.6874 24.8583 17.7592 25.1123 17.8971C25.365 18.0379 25.5418 18.2351 25.6396 18.4932C25.7357 18.7506 25.7476 19.0499 25.673 19.3918L25.4094 20.6136ZM24.0377 18.2691C23.6246 18.2684 23.2895 18.3631 23.0321 18.5582C22.7734 18.7506 22.6047 19.033 22.5246 19.4018L22.268 20.5832C22.1887 20.9527 22.2353 21.2357 22.4104 21.4301C22.5835 21.6259 22.8757 21.723 23.2887 21.7238C23.7014 21.7259 24.0356 21.6301 24.2948 21.4364C24.5519 21.2418 24.7217 20.9612 24.8021 20.5903L25.0571 19.4115C25.1346 19.0549 25.0915 18.7732 24.9286 18.5642C24.7512 18.3687 24.4554 18.2698 24.0377 18.2691Z" fill="white"/>
<path d="M23.1861 22.3613H23.162C22.7754 22.3592 22.4474 22.2877 22.1864 22.1447C21.9221 21.9975 21.7372 21.7888 21.6361 21.5197C21.5353 21.2552 21.5227 20.9404 21.5988 20.5903L21.8637 19.3693C21.9394 19.0197 22.0871 18.7106 22.2979 18.4485C22.5106 18.1872 22.7816 17.9824 23.1028 17.8424C23.4222 17.7015 23.7791 17.634 24.164 17.6322C24.5499 17.6333 24.8772 17.7068 25.1379 17.8502C25.4018 17.9945 25.5868 18.2058 25.6886 18.4738C25.7901 18.7404 25.8022 19.0527 25.7263 19.4042L25.4609 20.6253C25.3853 20.9744 25.239 21.2836 25.0264 21.545C24.8133 21.807 24.543 22.0121 24.2225 22.1525C23.9096 22.2898 23.5603 22.3592 23.1861 22.3613ZM24.1372 17.7405C23.7787 17.7416 23.4445 17.8095 23.1466 17.9414C22.8422 18.0757 22.5851 18.2694 22.3844 18.5181C22.1814 18.765 22.042 19.0601 21.9702 19.3918L21.706 20.6128C21.6339 20.9437 21.6454 21.236 21.7379 21.4814C21.8301 21.7255 21.9989 21.916 22.2387 22.0489C22.4843 22.1833 22.7937 22.2516 23.1624 22.2537C23.5255 22.2487 23.8729 22.1862 24.1788 22.0533C24.4825 21.9188 24.7388 21.7255 24.9418 21.4764C25.144 21.2285 25.2827 20.9344 25.3547 20.6027L25.6194 19.3817C25.6907 19.0506 25.68 18.7601 25.5868 18.5124C25.4943 18.2694 25.3264 18.0789 25.0841 17.9456C24.8407 17.8116 24.5306 17.7416 24.1633 17.7405H24.1372ZM23.3093 21.7785H23.2879C22.8608 21.7777 22.551 21.673 22.3682 21.4662C22.1824 21.2581 22.1308 20.957 22.2154 20.5721L22.4704 19.3918C22.5528 19.0099 22.7306 18.7147 22.9985 18.5138C23.2645 18.3145 23.6177 18.2168 24.0373 18.2157C24.4681 18.2157 24.7822 18.3215 24.9675 18.5273C25.144 18.7514 25.1898 19.0527 25.1103 19.4215L24.8539 20.6027C24.7722 20.9841 24.594 21.2788 24.3276 21.4793C24.0638 21.6758 23.7231 21.7764 23.3093 21.7785ZM24.0164 18.3236C23.6273 18.3255 23.3069 18.4187 23.0637 18.6013C22.8181 18.7854 22.6536 19.0601 22.5769 19.4147L22.3212 20.5946C22.2456 20.9437 22.2886 21.2131 22.4492 21.3944C22.6113 21.5759 22.8939 21.6681 23.2881 21.6709C23.6876 21.6691 24.0139 21.579 24.2605 21.3921C24.508 21.207 24.6707 20.9344 24.7474 20.5802L25.0042 19.3999C25.0755 19.0623 25.0365 18.7925 24.8844 18.5981C24.722 18.4176 24.4362 18.3243 24.0373 18.3236H24.0164Z" fill="white"/>
<path d="M29.1562 20.4591L28.8238 21.9923C28.8033 22.0846 28.7568 22.1614 28.6794 22.2222C28.6044 22.2811 28.5165 22.3111 28.4193 22.3111C28.3273 22.3102 28.2602 22.2804 28.2179 22.2186C28.1748 22.1593 28.163 22.0823 28.1823 21.9892L28.515 20.4559H28.4656C28.2509 20.4559 28.0579 20.5094 27.8844 20.6149C27.7113 20.7192 27.5678 20.8747 27.457 21.0772C27.3864 21.1984 27.2864 21.3785 27.157 21.6183C27.0326 21.8358 26.8776 22.0035 26.6944 22.1246C26.5098 22.2444 26.3097 22.3026 26.0906 22.3026C25.9745 22.3026 25.8881 22.2762 25.8315 22.2222C25.7752 22.1696 25.7571 22.0989 25.7755 22.011C25.8181 21.8162 25.9645 21.7187 26.2176 21.7198C26.2405 21.7187 26.271 21.7033 26.3044 21.6718C26.338 21.6391 26.3715 21.5928 26.4022 21.5325C26.5217 21.3256 26.611 21.1598 26.6712 21.0336C26.768 20.8361 26.9153 20.6392 27.1122 20.4444C27.3098 20.2511 27.523 20.1085 27.7517 20.0167C27.6672 19.8923 27.5739 19.6918 27.4736 19.4192C27.3624 19.1272 27.2652 18.8999 27.1842 18.7381C27.1061 18.5856 27.0138 18.5033 26.9089 18.493C26.7931 18.488 26.7092 18.46 26.6546 18.4093C26.5998 18.359 26.5825 18.2871 26.603 18.1939C26.6446 18.0035 26.7805 17.9095 27.0138 17.9102C27.2032 17.9116 27.3767 17.9719 27.5352 18.0928C27.693 18.2146 27.8275 18.3908 27.9375 18.6209C28.0135 18.7881 28.0957 18.9803 28.1842 19.1991C28.2641 19.412 28.3377 19.5747 28.4072 19.6865C28.4666 19.8115 28.5308 19.8737 28.5972 19.8737H28.6409L28.9905 18.2646C29.0145 18.1585 29.0605 18.0752 29.1328 18.0148C29.2042 17.9552 29.2885 17.9237 29.3856 17.9244C29.5975 17.9255 29.6799 18.0394 29.6312 18.2656L29.2817 19.8759H29.3262C29.3852 19.8759 29.4781 19.8145 29.6075 19.6896C29.7058 19.5921 29.852 19.4303 30.0475 19.2052C30.2633 18.9472 30.4505 18.7338 30.6075 18.568C30.765 18.4018 30.9367 18.2564 31.1245 18.1328C31.3437 17.9945 31.5448 17.9255 31.7307 17.9255C31.8462 17.9269 31.9324 17.9529 31.9884 18.007C32.0461 18.0598 32.0648 18.1306 32.0461 18.2178C32.0265 18.3068 31.9798 18.3753 31.9053 18.4268C31.8316 18.4769 31.7329 18.5054 31.6117 18.5083C31.4975 18.5176 31.368 18.6009 31.2216 18.757C31.0681 18.9089 30.8739 19.1333 30.6405 19.4293C30.4282 19.6875 30.2494 19.8862 30.1031 20.0245C30.2389 20.0892 30.358 20.1782 30.4563 20.2886C30.5563 20.4015 30.6237 20.5215 30.6591 20.6502C30.7399 20.9058 30.7818 21.1584 30.7858 21.4085C30.7828 21.516 30.791 21.5959 30.8126 21.6522C30.8351 21.7062 30.8656 21.7341 30.9044 21.7341C31.0158 21.7362 31.1019 21.7619 31.1591 21.8162C31.2191 21.8691 31.2388 21.9401 31.2198 22.0271C31.1775 22.2222 31.0252 22.3179 30.7638 22.3179C30.5455 22.3172 30.3709 22.2565 30.2382 22.1354C30.1066 22.0149 30.0306 21.8459 30.0095 21.6279C29.9991 21.5446 29.9919 21.4821 29.9919 21.44C29.9646 21.2323 29.9353 21.0694 29.9051 20.9515C29.875 20.8328 29.8192 20.7274 29.7373 20.6341C29.6169 20.5194 29.4402 20.4598 29.2077 20.4591H29.1562Z" fill="white"/>
<path d="M30.7722 22.3723H30.7629C30.5319 22.3723 30.343 22.3049 30.2011 22.1744C30.0604 22.0477 29.977 21.8632 29.9551 21.6327C29.9429 21.5476 29.9382 21.4845 29.9375 21.4401C29.91 21.2415 29.8815 21.0788 29.8529 20.9648C29.8246 20.8555 29.7713 20.7562 29.6966 20.6707C29.5897 20.5665 29.4245 20.5143 29.2061 20.5131H29.2003L28.8763 22.0036C28.8537 22.1081 28.7988 22.1962 28.7131 22.2633C28.6285 22.3306 28.5303 22.3632 28.4234 22.3649H28.4191C28.3087 22.3632 28.226 22.326 28.1717 22.2512C28.1201 22.1777 28.1065 22.0866 28.1297 21.978L28.4474 20.5114C28.2521 20.5131 28.0728 20.5635 27.9126 20.6607C27.7479 20.7622 27.6092 20.9105 27.5027 21.1042C27.4306 21.2303 27.3299 21.4115 27.2051 21.6442C27.075 21.8707 26.9129 22.0477 26.7233 22.1698C26.5343 22.2935 26.3239 22.356 26.0991 22.3581H26.0901C25.9596 22.356 25.8599 22.3238 25.7939 22.2612C25.7449 22.2148 25.694 22.1317 25.7222 21.9986C25.7545 21.8478 25.866 21.6674 26.2073 21.6652H26.2171C26.2171 21.6652 26.2317 21.6649 26.2664 21.6327C26.2952 21.6052 26.3257 21.5619 26.3546 21.5065C26.4763 21.2946 26.563 21.1318 26.6225 21.0091C26.7218 20.8069 26.8728 20.6032 27.0732 20.4066C27.2578 20.2251 27.4589 20.0869 27.6709 19.9918C27.5937 19.8629 27.5125 19.6806 27.4222 19.4365C27.3124 19.1495 27.2155 18.9223 27.1345 18.7608C27.0664 18.6275 26.9882 18.5545 26.9036 18.5485C26.7781 18.5425 26.6811 18.5084 26.6175 18.4492C26.5698 18.4041 26.5189 18.322 26.5497 18.1815C26.5802 18.0343 26.6874 17.8577 27.0051 17.856H27.0129C27.214 17.856 27.4013 17.9217 27.5676 18.0504C27.7326 18.1758 27.8735 18.3599 27.9861 18.5978C28.0606 18.7643 28.1441 18.9602 28.233 19.1785C28.3127 19.3904 28.3862 19.5512 28.4525 19.6578C28.5031 19.7624 28.5536 19.8189 28.5974 19.8196L28.9372 18.2523C28.9633 18.1351 29.0172 18.0404 29.0975 17.9725C29.1785 17.9042 29.2721 17.8664 29.385 17.8703C29.5034 17.8714 29.5916 17.9042 29.6436 17.9699C29.6994 18.0404 29.7135 18.1429 29.6848 18.278L29.3506 19.8168C29.3843 19.8034 29.4499 19.7656 29.5682 19.6505C29.6655 19.5565 29.8116 19.3947 30.005 19.1692C30.2208 18.9119 30.4105 18.6983 30.5671 18.531C30.727 18.3627 30.9041 18.2133 31.0938 18.0864C31.3219 17.9428 31.5383 17.8703 31.7306 17.8714C31.8599 17.8714 31.9604 17.9042 32.0264 17.9667C32.0974 18.0343 32.1211 18.1232 32.098 18.2298C32.0765 18.3313 32.0221 18.4123 31.9361 18.4728C31.8527 18.5277 31.7446 18.5585 31.6124 18.5639C31.5161 18.5706 31.3979 18.6479 31.2627 18.794C31.1085 18.9448 30.9146 19.1692 30.6819 19.4629C30.4955 19.6916 30.3323 19.875 30.1946 20.0115C30.3087 20.0747 30.4101 20.1558 30.4972 20.253C30.6016 20.3706 30.6744 20.5001 30.7109 20.6372C30.7926 20.8941 30.8371 21.1554 30.84 21.4072C30.8371 21.5088 30.8449 21.5837 30.8636 21.632C30.8723 21.6531 30.8865 21.6805 30.9041 21.6805C31.0296 21.682 31.1275 21.7124 31.1964 21.7753C31.2693 21.8429 31.2957 21.9333 31.2727 22.0393C31.2397 22.1898 31.1261 22.3702 30.7722 22.3723ZM29.1125 20.4045H29.2061C29.4535 20.4055 29.6446 20.4703 29.7748 20.5957C29.8652 20.6976 29.9252 20.8111 29.9579 20.9369C29.9884 21.057 30.0183 21.2228 30.0461 21.434C30.0473 21.479 30.0533 21.5373 30.0634 21.6206C30.0838 21.8285 30.1524 21.9833 30.2753 22.0959C30.3967 22.2063 30.56 22.2626 30.7629 22.2633C30.997 22.2656 31.1303 22.1831 31.1659 22.0161C31.1809 21.9471 31.1668 21.8961 31.1226 21.8554C31.0749 21.811 31.0005 21.7895 30.9041 21.7895C30.8604 21.7895 30.8005 21.7691 30.7626 21.6716C30.7371 21.6091 30.727 21.5212 30.7306 21.4065C30.727 21.1668 30.6851 20.9177 30.6066 20.6672C30.5729 20.545 30.5086 20.4298 30.4154 20.3256C30.3208 20.2205 30.2079 20.1351 30.0791 20.0733L30.0078 20.039L30.0652 19.9854C30.2089 19.8492 30.3883 19.6505 30.5962 19.3947C30.8314 19.0985 31.0289 18.8712 31.184 18.7194C31.3387 18.5528 31.4766 18.4645 31.6065 18.4542C31.7191 18.4513 31.8088 18.4256 31.8739 18.3816C31.9374 18.3395 31.975 18.2823 31.9928 18.2072C32.0071 18.1365 31.9937 18.0864 31.9517 18.0458C31.9053 18.0025 31.8306 17.981 31.7291 17.981H31.7235C31.5526 17.9821 31.3599 18.0476 31.1534 18.1787C30.9712 18.2998 30.8005 18.4427 30.6467 18.6057C30.4911 18.7708 30.304 18.9842 30.0889 19.24C29.8895 19.4704 29.745 19.6302 29.645 19.7288C29.5027 19.8657 29.4015 19.9293 29.3273 19.9303H29.3255L29.2147 19.9293L29.5776 18.2544C29.5995 18.154 29.5937 18.0811 29.5578 18.0375C29.527 17.9997 29.4683 17.98 29.3843 17.98C29.3008 17.9789 29.2287 18.0032 29.1668 18.0568C29.1057 18.1079 29.0638 18.1808 29.0447 18.2759L28.6862 19.9272H28.5974C28.5066 19.9272 28.4271 19.8564 28.3571 19.7092C28.2897 19.5995 28.214 19.4365 28.133 19.2175C28.0433 19.0019 27.962 18.8087 27.8877 18.6435C27.782 18.4224 27.6526 18.2516 27.502 18.1359C27.3518 18.0208 27.1926 17.9657 27.0129 17.9657H27.0051C26.8026 17.9657 26.691 18.0426 26.6563 18.2055C26.6401 18.278 26.6515 18.3323 26.691 18.3692C26.7365 18.4113 26.8085 18.4345 26.9108 18.4387C27.0385 18.4513 27.1452 18.5425 27.2327 18.7136C27.3145 18.8773 27.4123 19.1077 27.5238 19.3997C27.6226 19.6691 27.7146 19.8657 27.7956 19.9854L27.8351 20.0422L27.7716 20.0669C27.5511 20.1558 27.3414 20.2951 27.1503 20.4835C26.9581 20.6718 26.8133 20.8644 26.7211 21.057C26.6602 21.1821 26.5717 21.346 26.4508 21.5591C26.4161 21.6235 26.3794 21.6756 26.3407 21.7102C26.293 21.7563 26.2506 21.7732 26.2073 21.7753C25.9886 21.7753 25.8646 21.8561 25.8291 22.0211C25.814 22.0905 25.8254 22.1426 25.8692 22.1831C25.9143 22.2269 25.9894 22.2481 26.0911 22.2481H26.0991C26.3013 22.2481 26.4924 22.1898 26.6641 22.0786C26.8391 21.9644 26.9896 21.8007 27.1094 21.5927C27.2349 21.359 27.3353 21.1767 27.4077 21.051C27.5231 20.8409 27.6738 20.679 27.8555 20.5675C28.0373 20.457 28.2398 20.4024 28.465 20.4024H28.5838L28.236 22.0015C28.2198 22.0786 28.2273 22.1398 28.262 22.1876C28.2945 22.2327 28.3453 22.2556 28.4198 22.2556H28.4234C28.507 22.2556 28.5793 22.2301 28.6457 22.1777C28.712 22.1269 28.7533 22.0619 28.7705 21.9797L29.1125 20.4045Z" fill="white"/>
<path d="M32.6548 21.99C32.6072 22.2127 32.4817 22.3235 32.2784 22.3235C32.0733 22.3224 31.9964 22.2095 32.0443 21.9893L32.894 18.0691C32.9431 17.8421 33.0645 17.7291 33.2582 17.7291C33.4724 17.7299 33.5549 17.8447 33.5054 18.0702L33.1813 19.5627L35.7146 19.572L36.0377 18.0786C36.0875 17.8521 36.2137 17.7392 36.4175 17.7403C36.6224 17.7403 36.6984 17.8554 36.6498 18.0808L35.8002 22.0015C35.7516 22.2239 35.6256 22.3336 35.422 22.3329C35.2186 22.3329 35.1405 22.221 35.1881 21.9994L35.5894 20.1537L33.0555 20.1448L32.6548 21.99Z" fill="white"/>
<path d="M35.4271 22.3871C35.425 22.3871 35.4234 22.3871 35.4219 22.3882C35.3088 22.3871 35.226 22.3554 35.175 22.2928C35.1199 22.2242 35.1059 22.1219 35.1354 21.9876L35.5218 20.208L33.0993 20.2002L32.7089 22.003C32.6553 22.2464 32.5084 22.3759 32.2821 22.3782H32.2786C32.1654 22.3768 32.0813 22.346 32.0315 22.2828C31.9751 22.2131 31.9624 22.1116 31.9913 21.9776L32.8409 18.0573C32.9098 17.7406 33.1059 17.6721 33.2578 17.676C33.3777 17.676 33.4652 17.71 33.5175 17.7757C33.5741 17.845 33.5881 17.9485 33.5595 18.083L33.2494 19.5076L35.6712 19.5171L35.9854 18.0683C36.0526 17.7539 36.2547 17.6874 36.4128 17.6867H36.4162C36.5293 17.6867 36.6111 17.7191 36.6628 17.7804C36.7191 17.8515 36.7325 17.9558 36.7024 18.093L35.8521 22.013C35.8004 22.2581 35.6538 22.3871 35.4271 22.3871ZM33.0112 20.0905L35.6563 20.0998L35.2422 22.0112C35.2204 22.1105 35.226 22.1823 35.2597 22.2253C35.2892 22.2602 35.3428 22.2784 35.4219 22.2784H35.4268C35.6024 22.2784 35.7042 22.1856 35.7469 21.9905L36.5965 18.0705C36.6186 17.9672 36.612 17.8925 36.5775 17.8503C36.5498 17.8131 36.4953 17.7949 36.4175 17.7938C36.2369 17.7993 36.1361 17.8883 36.0915 18.0913L35.7581 19.6253L33.1143 19.6163L33.4511 18.0594C33.4736 17.9586 33.4673 17.886 33.4325 17.8429C33.4016 17.8043 33.3434 17.7846 33.2578 17.7839H33.255C33.0878 17.7857 32.9916 17.88 32.9471 18.0807L32.0978 22.0013C32.0757 22.1002 32.0813 22.172 32.1152 22.2138C32.1445 22.2499 32.1996 22.2693 32.2786 22.2693H32.2821C32.458 22.2682 32.5598 22.176 32.6024 21.9795L33.0112 20.0905Z" fill="white"/>
<path d="M40.8378 20.6631C40.7644 21.006 40.623 21.3052 40.4141 21.5614C40.2062 21.8172 39.9443 22.0141 39.6311 22.1533C39.3164 22.2908 38.9702 22.359 38.5919 22.3582C38.213 22.3562 37.8976 22.2854 37.6446 22.146C37.3893 22.0071 37.2143 21.8069 37.1174 21.55C37.0197 21.2942 37.0091 20.9951 37.0826 20.6505L37.3469 19.4306C37.4219 19.0886 37.5627 18.7885 37.771 18.5332C37.9795 18.2771 38.241 18.0795 38.5549 17.9423C38.8687 17.804 39.2149 17.7344 39.5931 17.7364C39.9717 17.7371 40.2883 17.8094 40.5427 17.9483C40.7952 18.0878 40.9705 18.2867 41.0679 18.5433C41.166 18.8009 41.1772 19.1 41.1028 19.4427L40.8378 20.6631ZM39.4667 18.3193C39.0542 18.3182 38.7196 18.4132 38.4621 18.608C38.2037 18.8016 38.0349 19.0846 37.9543 19.4532L37.6981 20.6323C37.6174 21.0029 37.6641 21.2845 37.8394 21.4803C38.0122 21.675 38.3058 21.7733 38.7186 21.7755C39.1308 21.7755 39.4658 21.6803 39.7236 21.4867C39.982 21.292 40.1514 21.0114 40.2311 20.6405L40.4867 19.4617C40.5639 19.1061 40.5209 18.8223 40.3581 18.6155C40.1812 18.4186 39.8842 18.3214 39.4667 18.3193Z" fill="white"/>
<path d="M38.6166 22.4113H38.5917C38.2056 22.4106 37.8768 22.3377 37.6163 22.1933C37.3523 22.0475 37.1667 21.8381 37.0658 21.5701C36.9656 21.304 36.9531 20.9905 37.0285 20.6404L37.2937 19.4193C37.3681 19.0698 37.5148 18.7608 37.7286 18.4985C37.9425 18.2347 38.2122 18.0325 38.5322 17.8924C38.8507 17.7508 39.2084 17.687 39.5935 17.6823C39.978 17.6834 40.3068 17.756 40.5674 17.9003C40.8323 18.0465 41.0175 18.2558 41.1187 18.5231C41.2186 18.7905 41.2318 19.1027 41.1561 19.4533L40.8911 20.6742C40.8155 21.023 40.6689 21.3336 40.4562 21.5959C40.2432 21.856 39.9727 22.0615 39.6524 22.2026C39.3392 22.3398 38.9914 22.4092 38.6166 22.4113ZM39.5683 17.7906C39.2078 17.7924 38.874 17.8602 38.5764 17.9903C38.2723 18.1236 38.0154 18.3184 37.814 18.5671C37.6104 18.815 37.4727 19.1102 37.3996 19.4418L37.1349 20.6629C37.0633 20.9938 37.0755 21.2857 37.168 21.5305C37.2595 21.7757 37.4279 21.9646 37.6695 22.099C37.9142 22.233 38.224 22.3026 38.5929 22.3038C38.9575 22.3016 39.3027 22.2362 39.6085 22.1029C39.913 21.9688 40.1695 21.7757 40.3703 21.5273C40.5736 21.2785 40.7124 20.9837 40.7844 20.6524L41.0493 19.4304C41.1206 19.1006 41.1097 18.809 41.0169 18.5625C40.9254 18.3194 40.7563 18.1285 40.5154 17.9956C40.2706 17.8602 39.9603 17.7924 39.5929 17.7906H39.5683ZM38.7383 21.8295H38.7181C38.2906 21.8274 37.9814 21.722 37.7981 21.5163C37.6119 21.3082 37.5608 21.008 37.6449 20.6207L37.8993 19.4418C37.9827 19.0599 38.1608 18.7647 38.4282 18.565C38.6904 18.3688 39.0313 18.268 39.4438 18.2647H39.4665C39.8983 18.2658 40.2115 18.3713 40.3977 18.5774C40.5724 18.8014 40.6203 19.1016 40.54 19.4726L40.2834 20.6524C40.2018 21.0341 40.0241 21.329 39.7563 21.5294C39.4936 21.7259 39.1511 21.8264 38.7383 21.8295ZM39.4444 18.3737C39.0565 18.3766 38.7367 18.4689 38.4939 18.6514C38.2476 18.8354 38.0839 19.1088 38.0067 19.4643L37.752 20.6436C37.6754 20.9949 37.7184 21.2639 37.8781 21.4444C38.0412 21.6259 38.3242 21.7191 38.7181 21.7198C39.1134 21.7181 39.4438 21.6287 39.6907 21.4436C39.9372 21.2589 40.1013 20.9837 40.1773 20.6289L40.4328 19.4489C40.5063 19.1123 40.4665 18.8426 40.3136 18.6482C40.1517 18.4678 39.8653 18.3744 39.4665 18.3737H39.4444Z" fill="white"/>
<path d="M43.2632 22.3112C42.7875 22.3091 42.4248 22.2651 42.1735 22.1811C41.9217 22.0968 41.7554 21.9599 41.6751 21.7701C41.5954 21.5805 41.592 21.3195 41.6642 20.9854L42.0664 19.1262C42.1381 18.7974 42.2511 18.5395 42.4058 18.3497C42.5608 18.1607 42.7757 18.0242 43.049 17.9381C43.3223 17.853 43.6754 17.8119 44.1063 17.8143L45.2641 17.8173C45.5493 17.8195 45.7476 17.8881 45.856 18.0274C45.9643 18.1664 45.9867 18.3819 45.9235 18.6735C45.8671 18.9318 45.737 19.0619 45.5343 19.0608C45.4366 19.0608 45.3671 19.028 45.3288 18.9637C45.2896 18.8979 45.2815 18.8075 45.3071 18.6922C45.3326 18.5763 45.3301 18.4994 45.2993 18.4597C45.2697 18.4194 45.1978 18.4001 45.086 18.4001L43.9802 18.3972C43.6442 18.3962 43.3958 18.4133 43.2333 18.4501C43.0695 18.4862 42.9478 18.557 42.8672 18.6613C42.7862 18.7639 42.7218 18.9253 42.6751 19.1415L42.2781 20.9743C42.2299 21.1956 42.2262 21.3585 42.2635 21.4596C42.3024 21.5622 42.4045 21.6322 42.5723 21.6687C42.7389 21.7066 43.011 21.7258 43.3893 21.728L44.3641 21.7302C44.4771 21.7312 44.5552 21.7106 44.6031 21.6729C44.6508 21.6329 44.6866 21.5564 44.7112 21.44C44.737 21.3245 44.7828 21.2355 44.8503 21.1703C44.9179 21.1055 44.9998 21.0734 45.0969 21.0734C45.2999 21.079 45.3734 21.2098 45.3167 21.4699C45.2554 21.7559 45.1399 21.9699 44.9721 22.1083C44.8033 22.2455 44.5764 22.3141 44.2902 22.3141L43.2632 22.3112Z" fill="white"/>
<path d="M44.3057 22.3673H44.2898L43.2628 22.3652C42.7842 22.363 42.411 22.318 42.1557 22.2329C41.8901 22.1443 41.7117 21.9952 41.6248 21.7916C41.542 21.5918 41.5358 21.3174 41.6105 20.9744L42.0134 19.1151C42.0859 18.78 42.2036 18.5104 42.3636 18.3151C42.5258 18.1182 42.7503 17.9748 43.0327 17.887C43.3104 17.7999 43.6719 17.7559 44.1059 17.7591L45.2637 17.7641C45.5666 17.7641 45.7792 17.842 45.8979 17.9945C46.0165 18.146 46.0426 18.3788 45.976 18.6845C45.8994 19.0394 45.6952 19.1151 45.5367 19.1159H45.5329C45.4156 19.1151 45.3309 19.073 45.2811 18.9922C45.2338 18.9154 45.2244 18.811 45.254 18.6817C45.2848 18.5434 45.2627 18.5016 45.2556 18.4931C45.249 18.484 45.217 18.4545 45.0856 18.4545L43.9797 18.4501C43.6516 18.4501 43.4041 18.467 43.2444 18.5027C43.0934 18.5363 42.9841 18.5998 42.91 18.6932C42.8344 18.7892 42.7737 18.9441 42.7276 19.1541L42.3303 20.9843C42.2858 21.1956 42.2811 21.349 42.3141 21.44C42.3459 21.5232 42.4359 21.5826 42.5831 21.6166C42.7447 21.6523 43.0168 21.672 43.3888 21.673L44.3636 21.6755C44.4589 21.6751 44.532 21.6597 44.5678 21.6304C44.5943 21.6093 44.6307 21.5562 44.6584 21.4282C44.6856 21.3028 44.7369 21.2028 44.812 21.1309C44.8898 21.0561 44.9907 21.0223 45.0968 21.0183C45.2023 21.0213 45.2805 21.0551 45.3303 21.1176C45.3932 21.1977 45.4057 21.3164 45.3695 21.4814C45.3057 21.7784 45.1824 22.0035 45.0062 22.1493C44.8315 22.2926 44.5952 22.3662 44.3057 22.3673ZM43.2628 22.2558L44.2898 22.2576C44.5594 22.263 44.7783 22.1943 44.9359 22.065C45.0946 21.9371 45.2042 21.7324 45.2637 21.4589C45.2914 21.3289 45.2848 21.2378 45.2444 21.1841C45.2154 21.1474 45.1662 21.1288 45.0955 21.1277H45.0937C45.0127 21.1277 44.9452 21.1545 44.8879 21.2088C44.8287 21.2653 44.7867 21.347 44.7646 21.4514C44.7369 21.5805 44.6955 21.6655 44.6373 21.7137C44.5797 21.763 44.4863 21.7813 44.3636 21.7856L43.3888 21.7824C43.0016 21.7802 42.7319 21.7609 42.5588 21.7219C42.3742 21.6787 42.2581 21.598 42.2126 21.4792C42.1697 21.3663 42.1747 21.1977 42.2257 20.9619L42.6208 19.1302C42.6712 18.9029 42.7369 18.7382 42.8235 18.6274C42.9116 18.5138 43.0467 18.4348 43.2201 18.3972C43.3885 18.3591 43.641 18.3398 43.9797 18.3425L45.0868 18.3458C45.2173 18.3458 45.3007 18.3722 45.3427 18.427C45.3839 18.4809 45.3894 18.5687 45.3599 18.7043C45.3381 18.8057 45.3427 18.8825 45.3751 18.9354C45.4034 18.983 45.4555 19.0055 45.5339 19.0076H45.5361C45.7104 19.0055 45.8194 18.894 45.8701 18.6624C45.929 18.3876 45.91 18.1872 45.8129 18.061C45.7157 17.936 45.5298 17.8726 45.2637 17.8726L44.1059 17.8673C43.6784 17.8663 43.3322 17.9081 43.0654 17.9914C42.8032 18.0714 42.5959 18.2047 42.448 18.3827C42.2982 18.567 42.1887 18.8189 42.1199 19.1377L41.717 20.9969C41.6473 21.3174 41.6507 21.5714 41.7261 21.7494C41.7989 21.9231 41.9558 22.0507 42.1915 22.1307C42.434 22.2115 42.7961 22.2537 43.2628 22.2558Z" fill="white"/>
<path d="M49.7473 17.8326C49.9851 17.8326 50.0832 17.9298 50.0407 18.1256C49.9992 18.3183 49.8591 18.4154 49.6205 18.4147L48.5871 18.4115L47.7981 22.0538C47.7773 22.146 47.7282 22.2229 47.6504 22.2826C47.5707 22.343 47.4792 22.3726 47.3717 22.3726C47.2646 22.3705 47.1892 22.3436 47.1428 22.2876C47.0964 22.2325 47.0852 22.1533 47.1061 22.052L47.8962 18.4105L46.847 18.4055C46.7365 18.4055 46.654 18.3787 46.603 18.3254C46.5525 18.2718 46.5354 18.2015 46.5544 18.1135C46.5743 18.0264 46.6204 17.9556 46.6948 17.9022C46.7686 17.8491 46.8626 17.8227 46.9744 17.8237L49.7473 17.8326Z" fill="white"/>
<path d="M47.375 22.426H47.3721C47.2481 22.426 47.1574 22.391 47.1011 22.3223C47.0438 22.2538 47.0279 22.1595 47.0534 22.0419L47.8282 18.4635L46.8474 18.4595C46.7203 18.4595 46.6266 18.427 46.5644 18.3623C46.5189 18.3173 46.4731 18.2343 46.5009 18.1019C46.5242 18.0018 46.5781 17.9185 46.6633 17.8582C46.7462 17.7978 46.8542 17.7712 46.9747 17.7684L49.7473 17.7785C49.8964 17.7785 49.9959 17.8131 50.0534 17.8848C50.1034 17.9464 50.1166 18.0311 50.0935 18.1359C50.0619 18.2873 49.953 18.4678 49.628 18.4689H49.6219L48.6305 18.4656L47.8523 22.0662C47.8282 22.1705 47.7726 22.2587 47.6825 22.3255C47.5957 22.3917 47.4929 22.426 47.375 22.426ZM46.9694 17.8774C46.8701 17.8774 46.7913 17.9003 46.7265 17.9464C46.6633 17.9914 46.6235 18.0507 46.6079 18.1258C46.5927 18.194 46.6045 18.2477 46.6413 18.2866C46.6827 18.3294 46.7524 18.3519 46.8474 18.3519L47.964 18.3547L47.1599 22.0629C47.1413 22.1494 47.1497 22.2098 47.1854 22.2538C47.2207 22.2959 47.2835 22.3181 47.3721 22.3181H47.374C47.4698 22.3174 47.5481 22.2917 47.6164 22.2398C47.6862 22.1873 47.7273 22.1233 47.7452 22.0426L48.5432 18.3571L49.6219 18.3602C49.8289 18.3592 49.9511 18.2833 49.9879 18.1136C50.0034 18.0413 49.9963 17.9882 49.9685 17.9531C49.9331 17.9081 49.8586 17.8871 49.7473 17.8871L46.9747 17.8774H46.9694Z" fill="white"/>
<path d="M50.9456 20.0997L50.5876 21.751L53.3675 21.7602C53.484 21.7602 53.5684 21.7859 53.6212 21.8366C53.6722 21.8885 53.6868 21.9649 53.6656 22.0665C53.6472 22.1547 53.6009 22.2223 53.5269 22.2712C53.4528 22.3183 53.3576 22.343 53.2416 22.343L50.141 22.3338C50.0495 22.3338 49.9839 22.3019 49.9457 22.2416C49.9085 22.1822 49.9019 22.095 49.9264 21.9853L50.7489 18.1822C50.773 18.0713 50.8178 17.9856 50.88 17.9259C50.9456 17.8667 51.0239 17.8359 51.1149 17.8369L54.216 17.8463C54.3339 17.8463 54.4169 17.872 54.4688 17.9241C54.5216 17.9752 54.5362 18.0521 54.514 18.1536C54.4952 18.2418 54.4485 18.309 54.3754 18.3573C54.3013 18.4056 54.2065 18.4301 54.09 18.4301L51.3092 18.4197L51.072 19.5167L52.9572 19.5233C53.0883 19.5233 53.1831 19.5486 53.242 19.6007C53.3019 19.6508 53.3203 19.728 53.2977 19.8302C53.2585 20.015 53.1019 20.1071 52.8308 20.1061L50.9456 20.0997Z" fill="white"/>
<path d="M53.2489 22.3968H53.2418L50.1413 22.3868C50.0295 22.3868 49.9488 22.3478 49.9003 22.2707C49.8536 22.1972 49.8446 22.0999 49.8724 21.9719L50.6959 18.1707C50.7223 18.0498 50.7723 17.9544 50.8435 17.8857C50.9181 17.8172 51.0081 17.7822 51.1119 17.7822H51.1157L54.2172 17.7915C54.3455 17.7922 54.4445 17.8233 54.5063 17.8847C54.5723 17.9494 54.5936 18.0435 54.5676 18.1653C54.5464 18.2656 54.4907 18.3468 54.4049 18.4019C54.3233 18.4565 54.2144 18.4829 54.0898 18.4839L51.3529 18.4748L51.1393 19.4621L52.9574 19.4684C53.1013 19.4695 53.2093 19.4992 53.2772 19.5585C53.3541 19.6239 53.3781 19.7183 53.3522 19.8401C53.3055 20.0531 53.1272 20.156 52.831 20.1599L50.9902 20.1527L50.6558 21.6983L53.3682 21.7053C53.5008 21.7053 53.5956 21.7362 53.6592 21.7987C53.7253 21.8634 53.746 21.9566 53.7196 22.077C53.697 22.1789 53.6432 22.2585 53.5569 22.3158C53.4762 22.3693 53.3729 22.3958 53.2489 22.3968ZM51.1128 17.8908C51.036 17.8908 50.9728 17.9155 50.9181 17.9659C50.8638 18.018 50.8237 18.0938 50.803 18.1938L49.9781 21.9967C49.9578 22.0924 49.962 22.1656 49.9927 22.2124C50.0201 22.2564 50.0686 22.2771 50.1413 22.2771L53.2423 22.2883C53.3489 22.2894 53.4324 22.2672 53.497 22.225C53.5592 22.185 53.597 22.1274 53.6125 22.0548C53.63 21.9719 53.6196 21.9134 53.5828 21.8765C53.5413 21.8344 53.4701 21.814 53.3682 21.814L50.5205 21.8052L50.9015 20.0451L52.831 20.0512H52.8405C53.0796 20.0495 53.2112 19.9738 53.2451 19.8176C53.2626 19.7368 53.2503 19.6786 53.2074 19.6403C53.1574 19.5986 53.073 19.5767 52.9574 19.5767L51.0039 19.5699L51.2661 18.3665L54.0898 18.3742C54.196 18.3721 54.2804 18.3543 54.3445 18.3118C54.4068 18.2711 54.4445 18.2156 54.4615 18.1417C54.478 18.0587 54.469 17.9995 54.4304 17.9626C54.3893 17.9219 54.3167 17.9012 54.2162 17.9012L51.1152 17.8908H51.1128Z" fill="white"/>
<path d="M54.5406 22.0615L55.39 18.1419C55.4391 17.9157 55.5655 17.8021 55.7692 17.8021C55.9725 17.8042 56.0489 17.9243 55.997 18.1657L55.3051 21.3565L58.5769 17.9857C58.6939 17.8706 58.8118 17.812 58.9283 17.8131C59.1226 17.8146 59.1947 17.9274 59.1443 18.1543L58.2958 22.0748C58.2477 22.2966 58.1218 22.4067 57.9175 22.4067C57.7143 22.4067 57.635 22.301 57.6798 22.093L58.3802 18.8601L55.1429 22.203C55.0683 22.2813 55.0061 22.3349 54.957 22.3592C54.9075 22.3838 54.8434 22.3963 54.766 22.3963C54.5675 22.3963 54.4915 22.2834 54.5406 22.0615ZM56.854 17.9732C56.5677 17.9732 56.3819 17.9024 56.2941 17.7634C56.2078 17.6238 56.2017 17.385 56.2753 17.0484L56.3389 16.7494L56.9507 16.7514L56.862 17.161C56.8408 17.2622 56.8389 17.3267 56.8582 17.3515C56.8766 17.3773 56.936 17.3903 57.0398 17.3915L57.7808 17.3924C57.877 17.3924 57.9411 17.3822 57.9718 17.3553C58.0005 17.33 58.0274 17.2664 58.0491 17.1649L58.1378 16.7561L58.7495 16.7572L58.6849 17.0563C58.6104 17.3983 58.5 17.6369 58.3547 17.7734C58.2081 17.91 57.9921 17.9772 57.7048 17.9761L56.854 17.9732Z" fill="white"/>
<path d="M57.9233 22.461H57.9195C57.8021 22.461 57.7167 22.4289 57.6663 22.3653C57.6139 22.301 57.6002 22.2049 57.6266 22.0815L58.2874 19.0353L55.1835 22.2405C55.1034 22.3242 55.0373 22.379 54.9817 22.4075C54.926 22.435 54.8572 22.4508 54.7746 22.4508H54.7657C54.6572 22.4508 54.5761 22.4189 54.5265 22.3586C54.4714 22.2889 54.4577 22.1856 54.4869 22.0501L55.3373 18.1312C55.4047 17.8175 55.6057 17.7495 55.7641 17.7488H55.7693C55.8787 17.7488 55.9599 17.7804 56.0103 17.8443C56.0693 17.9179 56.0825 18.0265 56.0504 18.1762L55.3986 21.1826L58.5378 17.9486C58.6647 17.8235 58.7949 17.7603 58.9246 17.7592H58.9284C59.0335 17.7592 59.1109 17.7899 59.1604 17.8504C59.2161 17.92 59.2288 18.0255 59.1986 18.1666L58.3487 22.087C58.2964 22.3296 58.1487 22.4585 57.9233 22.461ZM58.4737 18.6851L57.7332 22.1055C57.7134 22.1934 57.7205 22.2581 57.7512 22.2981C57.7799 22.3339 57.8365 22.3521 57.9181 22.3521H57.9233C58.0969 22.3521 58.1992 22.2581 58.2426 22.0623L59.092 18.1434C59.1151 18.0365 59.109 17.9608 59.0741 17.9186C59.0486 17.8839 58.9982 17.8679 58.9284 17.8679H58.9255C58.8256 17.8686 58.7204 17.9207 58.6161 18.0244L55.2118 21.5306L55.9443 18.1534C55.9683 18.0386 55.9622 17.9575 55.925 17.9122C55.8962 17.8757 55.8438 17.8575 55.7693 17.8575C55.5943 17.8603 55.4873 17.9518 55.4434 18.1534L54.5935 22.0748C54.5709 22.1748 54.5775 22.2485 54.611 22.2899C54.6397 22.3242 54.6921 22.3411 54.7657 22.3411C54.8392 22.34 54.8911 22.3318 54.9322 22.3103C54.9614 22.295 55.0166 22.2581 55.1038 22.1659L58.4737 18.6851ZM57.7233 18.0309H57.7059L56.855 18.0265C56.5489 18.0265 56.3457 17.9476 56.2499 17.7921C56.1532 17.6391 56.1452 17.3911 56.2226 17.0359L56.2961 16.6947L57.0192 16.6968L56.9154 17.1721C56.8909 17.289 56.9013 17.3186 56.9027 17.3204C56.9027 17.3204 56.9305 17.3358 57.0394 17.3358L57.7809 17.3393H57.7879C57.8997 17.3379 57.9299 17.3197 57.9356 17.3158C57.9403 17.3093 57.9681 17.2818 57.9955 17.1536L58.0936 16.7011L58.8161 16.7044L58.7374 17.0664C58.6628 17.418 58.5459 17.67 58.3907 17.8132C58.2388 17.9558 58.0143 18.0297 57.7233 18.0309ZM56.3843 16.8044L56.3296 17.0595C56.2584 17.3823 56.2631 17.6085 56.3409 17.7339C56.4159 17.8564 56.5895 17.9179 56.855 17.9186L57.7059 17.9207C57.9728 17.9179 58.1822 17.8596 58.3176 17.7339C58.4544 17.6063 58.5605 17.3744 58.6308 17.0442L58.6822 16.8115L58.1822 16.8097L58.1021 17.1772C58.078 17.2929 58.0469 17.3633 58.0068 17.3966C57.9672 17.4312 57.8936 17.4459 57.7809 17.448L57.0394 17.4448C56.9116 17.4448 56.8437 17.4273 56.8135 17.383C56.7838 17.3443 56.7833 17.2736 56.8088 17.1496L56.8843 16.8055L56.3843 16.8044Z" fill="white"/>
</g>
<defs>
<clipPath id="clip0_242_719">
<rect width="63.2" height="23.5821" fill="white" transform="translate(0 0.208954)"/>
</clipPath>
</defs>
</svg>
